<?xml version="1.0" encoding="UTF-8"?>
<svg version="1.1" xmlns="http://www.w3.org/2000/svg" width="500" height="500">
<path d="M0 0 C1.4428087 -0.01144319 2.88557769 -0.03177172 4.328125 -0.06152344 C17.57331491 -0.33416477 28.01582156 2.40679009 39.62304688 8.85766602 C40.33783203 9.24374023 41.05261719 9.62981445 41.7890625 10.02758789 C44.59577384 11.55167629 47.37016443 13.10586029 50.10888672 14.74975586 C52.61758687 16.25440546 55.14938355 17.7056869 57.69726562 19.14282227 C58.61958984 19.66553711 59.54191406 20.18825195 60.4921875 20.72680664 C62.42331085 21.82001884 64.35561739 22.91114345 66.2890625 24.00024414 C67.20751953 24.52166992 68.12597656 25.0430957 69.07226562 25.58032227 C69.90975342 26.05348877 70.74724121 26.52665527 71.61010742 27.01416016 C73.68554687 28.29516602 73.68554687 28.29516602 75.68554688 30.29516602 C76.67554688 30.62516602 77.66554688 30.95516602 78.68554688 31.29516602 C78.68554688 31.95516602 78.68554688 32.61516602 78.68554688 33.29516602 C79.46929687 33.43954102 80.25304687 33.58391602 81.06054688 33.73266602 C83.68554688 34.29516602 83.68554688 34.29516602 85.68554688 35.29516602 C85.68554688 35.95516602 85.68554688 36.61516602 85.68554688 37.29516602 C86.40323242 37.4038501 87.12091797 37.51253418 87.86035156 37.62451172 C90.92843407 38.35282339 93.15225368 39.46729921 95.88867188 41.02563477 C96.86964844 41.58186523 97.850625 42.1380957 98.86132812 42.71118164 C99.87582031 43.29577148 100.8903125 43.88036133 101.93554688 44.48266602 C102.93457031 45.04791992 103.93359375 45.61317383 104.96289062 46.19555664 C110.36497137 49.27792036 115.58331456 52.51834669 120.72436523 56.01635742 C123.27235407 57.67779966 125.94869293 58.97303224 128.68554688 60.29516602 C131.10843956 61.68838185 133.48901338 63.14919483 135.87304688 64.60766602 C142.72511267 68.76056145 149.61967127 72.88500976 156.86132812 76.33032227 C158.68554688 77.29516602 158.68554688 77.29516602 160.68554688 79.29516602 C162.3354627 80.0022728 164.00116943 80.6746059 165.68554688 81.29516602 C165.68554688 81.95516602 165.68554688 82.61516602 165.68554688 83.29516602 C166.46929687 83.43954102 167.25304687 83.58391602 168.06054688 83.73266602 C170.68554688 84.29516602 170.68554688 84.29516602 172.68554688 85.29516602 C172.68554688 85.95516602 172.68554688 86.61516602 172.68554688 87.29516602 C173.37648438 87.38668945 174.06742187 87.47821289 174.77929688 87.57250977 C178.34873347 88.46007129 181.01204973 89.99796757 184.18554688 91.85766602 C184.79575684 92.2133667 185.4059668 92.56906738 186.03466797 92.93554688 C191.24339196 95.98863567 196.37923121 99.15973152 201.50976562 102.34204102 C208.43099886 106.59864202 215.38779861 110.71615251 222.68554688 114.29516602 C222.68554688 115.61516602 222.68554688 116.93516602 222.68554688 118.29516602 C220.84057617 119.84741211 220.84057617 119.84741211 218.25976562 121.31860352 C217.31681641 121.86516602 216.37386719 122.41172852 215.40234375 122.97485352 C214.40267578 123.53430664 213.40300781 124.09375977 212.37304688 124.67016602 C211.41591797 125.22188477 210.45878906 125.77360352 209.47265625 126.34204102 C204.66782544 129.09875203 199.8210122 131.77250913 194.95117188 134.41235352 C190.47541746 136.84231201 186.09274781 139.38929984 181.74804688 142.04516602 C171.49512045 148.29516602 171.49512045 148.29516602 167.68554688 148.29516602 C167.35554688 148.95516602 167.02554687 149.61516602 166.68554688 150.29516602 C164.25164774 151.94145302 161.81312752 153.50992904 159.31054688 155.04516602 C158.58029297 155.49690186 157.85003906 155.9486377 157.09765625 156.4140625 C152.3494723 159.33043055 147.55283117 162.1090679 142.62304688 164.70922852 C140.23860218 165.99657499 137.89893806 167.3260054 135.56054688 168.69360352 C134.83802734 169.11246826 134.11550781 169.53133301 133.37109375 169.96289062 C131.93549001 170.79695844 130.50431538 171.63870587 129.078125 172.48876953 C127.32301595 173.50158135 125.5070898 174.40737273 123.68554688 175.29516602 C122.69554687 174.96516602 121.70554687 174.63516602 120.68554688 174.29516602 C120.68554688 174.95516602 120.68554688 175.61516602 120.68554688 176.29516602 C116.00649038 177.72753025 111.55366846 178.66411322 106.68554688 179.29516602 C105.96109375 179.46532227 105.23664063 179.63547852 104.49023438 179.81079102 C95.35040604 181.38925719 84.53074986 181.20092485 75.68554688 178.29516602 C74.7496875 178.00319336 74.7496875 178.00319336 73.79492188 177.70532227 C65.68809614 174.92066058 57.98314065 170.74938295 50.68554688 166.29516602 C49.63367188 165.69704102 48.58179688 165.09891602 47.49804688 164.48266602 C44.67924117 162.87969711 41.89759065 161.22353758 39.12304688 159.54516602 C32.08470509 155.30494176 24.93658242 151.25256858 17.77734375 147.22045898 C15.27065244 145.80281465 12.85126042 144.42188814 10.56054688 142.67016602 C8.38820547 141.07711565 6.2101515 140.2068288 3.68554688 139.29516602 C3.68554688 138.63516602 3.68554688 137.97516602 3.68554688 137.29516602 C2.03554687 136.96516602 0.38554687 136.63516602 -1.31445312 136.29516602 C-1.31445312 135.63516602 -1.31445312 134.97516602 -1.31445312 134.29516602 C-2.38373047 134.14241211 -2.38373047 134.14241211 -3.47460938 133.98657227 C-6.69200918 133.20324384 -8.9257591 131.95346931 -11.75195312 130.23266602 C-16.4941986 127.3861376 -21.25692316 124.59174512 -26.06445312 121.85766602 C-27.26760351 121.17151261 -28.47073074 120.4853186 -29.67382812 119.79907227 C-30.54523438 119.3027832 -31.41664063 118.80649414 -32.31445312 118.29516602 C-32.31445312 117.63516602 -32.31445312 116.97516602 -32.31445312 116.29516602 C-33.02988281 116.19204102 -33.7453125 116.08891602 -34.48242188 115.98266602 C-37.66061317 115.21113268 -39.83847867 113.99901462 -42.62695312 112.29516602 C-43.66980469 111.6699707 -44.71265625 111.04477539 -45.78710938 110.40063477 C-46.35059082 110.06209473 -46.91407227 109.72355469 -47.49462891 109.37475586 C-50.82194189 107.4008656 -54.19330676 105.50539131 -57.56445312 103.60766602 C-58.53765503 103.055625 -58.53765503 103.055625 -59.53051758 102.49243164 C-62.85513257 100.61988432 -66.20395985 98.80128778 -69.59570312 97.05297852 C-70.23056641 96.72571777 -70.86542969 96.39845703 -71.51953125 96.0612793 C-74.26655863 94.88878584 -76.3889185 94.82974005 -79.31445312 95.29516602 C-81.54189099 96.7149451 -81.54189099 96.7149451 -83.31445312 98.29516602 C-83.97445312 98.29516602 -84.63445312 98.29516602 -85.31445312 98.29516602 C-85.62382812 99.22329102 -85.93320313 100.15141602 -86.25195312 101.10766602 C-86.93945312 103.17016602 -87.62695312 105.23266602 -88.31445312 107.29516602 C-88.40799707 108.83589406 -88.44533758 110.38035432 -88.4486742 111.92391586 C-88.45536097 113.35807582 -88.45536097 113.35807582 -88.46218282 114.82120872 C-88.46199846 115.87381519 -88.46181409 116.92642166 -88.46162415 118.01092529 C-88.46530083 119.12744295 -88.46897752 120.24396061 -88.47276562 121.39431214 C-88.48382486 125.15521333 -88.48765009 128.91608692 -88.49145508 132.67700195 C-88.49771798 135.36556158 -88.50435164 138.05411823 -88.5113678 140.74267578 C-88.53113033 148.82457958 -88.54119789 156.90648462 -88.55009559 164.98840654 C-88.5544786 168.79397118 -88.55984536 172.59953442 -88.56508446 176.40509796 C-88.58209609 189.05485114 -88.59659061 201.70460344 -88.6038332 214.3543663 C-88.6057431 217.63704174 -88.60766343 220.91971717 -88.60961914 224.20239258 C-88.61010288 225.01828835 -88.61058662 225.83418412 -88.61108502 226.674804 C-88.61938665 239.89397424 -88.64472608 253.11305403 -88.67719982 266.33218476 C-88.71026495 279.90263428 -88.72828144 293.47303782 -88.73147744 307.04352784 C-88.73364298 314.6634318 -88.74239811 322.28320383 -88.76793861 329.90306854 C-88.78963815 336.39199588 -88.79769976 342.88075925 -88.78797183 349.36971876 C-88.78342493 352.68003936 -88.78751459 355.98995071 -88.80473328 359.30023956 C-88.82236698 362.89093742 -88.81538696 366.48077442 -88.80220032 370.07147217 C-88.81316956 371.11515575 -88.82413881 372.15883934 -88.83544046 373.23414969 C-88.77237301 380.33796357 -87.62297017 384.90753226 -82.51757812 390.13500977 C-79.9329892 391.58754874 -78.30909995 392.15333565 -75.31445312 392.29516602 C-69.57486073 390.62246718 -64.41212228 387.34066857 -59.31445312 384.29516602 C-57.99960937 383.53719727 -57.99960937 383.53719727 -56.65820312 382.76391602 C-54.18787077 381.30878874 -51.75339366 379.80237646 -49.31445312 378.29516602 C-46.34396649 376.48878901 -43.36225683 374.70192458 -40.37695312 372.92016602 C-39.63002197 372.46657715 -38.88309082 372.01298828 -38.11352539 371.5456543 C-37.05476196 370.91506104 -37.05476196 370.91506104 -35.97460938 370.27172852 C-35.34176025 369.89097168 -34.70891113 369.51021484 -34.05688477 369.11791992 C-32.31445312 368.29516602 -32.31445312 368.29516602 -29.31445312 368.29516602 C-29.31445312 367.63516602 -29.31445312 366.97516602 -29.31445312 366.29516602 C-28.30382812 365.82079102 -27.29320312 365.34641602 -26.25195312 364.85766602 C-21.19832846 362.34446308 -16.41030363 359.40590546 -11.59545898 356.46923828 C-3.09496216 351.29516602 -3.09496216 351.29516602 0.68554688 351.29516602 C0.68554688 350.63516602 0.68554688 349.97516602 0.68554688 349.29516602 C2.48632812 347.99829102 2.48632812 347.99829102 4.99804688 346.54516602 C5.92359375 346.00762695 6.84914062 345.47008789 7.80273438 344.91625977 C11.29312465 342.95350643 14.80958889 341.04424131 18.33789062 339.15063477 C21.08538449 337.62781145 23.79608151 336.06556292 26.50195312 334.47094727 C27.35474854 333.96974365 28.20754395 333.46854004 29.08618164 332.95214844 C30.80212776 331.94082488 32.51493763 330.9241586 34.22436523 329.90185547 C35.41171265 329.20322388 35.41171265 329.20322388 36.62304688 328.49047852 C37.33332031 328.06782715 38.04359375 327.64517578 38.77539062 327.2097168 C40.68554688 326.29516602 40.68554688 326.29516602 43.68554688 326.29516602 C43.68554688 325.63516602 43.68554688 324.97516602 43.68554688 324.29516602 C44.61367188 324.02704102 45.54179687 323.75891602 46.49804688 323.48266602 C49.58076445 322.59807426 49.58076445 322.59807426 50.95507812 320.96704102 C53.48506758 318.52271712 56.47986276 316.99818661 59.56054688 315.35766602 C60.2216748 315.00502686 60.88280273 314.6523877 61.56396484 314.2890625 C67.69871105 311.11761126 73.97769174 308.94877376 80.68554688 307.29516602 C81.44222656 307.10180664 82.19890625 306.90844727 82.97851562 306.70922852 C108.26075257 302.84210425 127.88666655 313.24909911 148.97070312 325.70141602 C152.10356071 327.54056119 155.27066695 329.30895448 158.45507812 331.05688477 C165.57197075 335.00794424 172.58983439 339.13535561 179.62304688 343.23266602 C181.1921582 344.14435547 181.1921582 344.14435547 182.79296875 345.07446289 C187.90609005 348.05363539 192.98920283 351.05636968 197.96899414 354.25439453 C199.82836661 355.38175975 201.73025979 356.34521389 203.68554688 357.29516602 C205.01888021 357.96183268 206.35221354 358.62849935 207.68554688 359.29516602 C207.68554688 359.95516602 207.68554688 360.61516602 207.68554688 361.29516602 C208.40097656 361.39700195 209.11640625 361.49883789 209.85351562 361.60375977 C213.03095726 362.37949379 215.23316522 363.62500685 217.99804688 365.35766602 C218.88105469 365.90551758 219.7640625 366.45336914 220.67382812 367.01782227 C221.66962891 367.65010742 221.66962891 367.65010742 222.68554688 368.29516602 C222.31454768 370.79676059 222.05522643 371.98499585 220.08398438 373.63891602 C219.41625 374.02047852 218.74851562 374.40204102 218.06054688 374.79516602 C216.98353516 375.4197168 216.98353516 375.4197168 215.88476562 376.05688477 C215.15902344 376.46551758 214.43328125 376.87415039 213.68554688 377.29516602 C213.03199219 377.69348633 212.3784375 378.09180664 211.70507812 378.50219727 C207.07644794 381.29516602 207.07644794 381.29516602 203.68554688 381.29516602 C203.68554688 381.95516602 203.68554688 382.61516602 203.68554688 383.29516602 C203.05390625 383.63547852 202.42226563 383.97579102 201.77148438 384.32641602 C190.69275567 390.32872436 179.77057601 396.51895008 169.11132812 403.24047852 C166.27213376 404.94334766 163.41715872 406.54216783 160.50585938 408.11547852 C154.66299734 411.27831526 148.95179182 414.63936087 143.24804688 418.04516602 C141.33342704 419.18704069 139.41809111 420.32771573 137.50195312 421.46704102 C136.67123291 421.96300781 135.8405127 422.45897461 134.98461914 422.9699707 C129.21576058 426.29516602 129.21576058 426.29516602 125.68554688 426.29516602 C125.35554688 426.95516602 125.02554687 427.61516602 124.68554688 428.29516602 C123.50992188 428.75922852 123.50992188 428.75922852 122.31054688 429.23266602 C119.72440756 430.06967888 119.72440756 430.06967888 118.40429688 431.63891602 C116.04568337 433.91176176 113.42279023 435.26716188 110.56054688 436.85766602 C109.30079207 437.56355591 108.04170735 438.27064266 106.78320312 438.97875977 C105.78571045 439.53926025 105.78571045 439.53926025 104.76806641 440.11108398 C101.15081465 442.16778633 97.57726253 444.29820245 93.99804688 446.42016602 C88.56117274 449.63593704 83.08534571 452.73607647 77.51757812 455.72094727 C73.21577307 458.11215752 69.0135573 460.66582463 64.81005859 463.22509766 C56.46079192 468.29516602 56.46079192 468.29516602 52.68554688 468.29516602 C52.35554688 468.95516602 52.02554687 469.61516602 51.68554688 470.29516602 C48.68554688 472.29516602 48.68554688 472.29516602 45.68554688 472.29516602 C45.35554688 472.95516602 45.02554687 473.61516602 44.68554688 474.29516602 C42.60400179 475.66702597 40.53248846 476.93291408 38.37304688 478.17016602 C37.81037109 478.50918945 37.24769531 478.84821289 36.66796875 479.19750977 C26.3955282 485.11569567 16.35606354 486.93830276 4.65771484 486.76171875 C2.5555174 486.73259634 0.45583178 486.74119124 -1.64648438 486.75415039 C-12.96174151 486.73923756 -21.63443945 484.64049516 -31.43945312 479.10766602 C-32.10976562 478.73963867 -32.78007812 478.37161133 -33.47070312 477.99243164 C-35.08998226 477.10182812 -36.70294684 476.19975821 -38.31445312 475.29516602 C-38.31445312 474.63516602 -38.31445312 473.97516602 -38.31445312 473.29516602 C-39.09820312 473.15079102 -39.88195312 473.00641602 -40.68945312 472.85766602 C-43.31445312 472.29516602 -43.31445312 472.29516602 -45.31445312 471.29516602 C-45.31445312 470.63516602 -45.31445312 469.97516602 -45.31445312 469.29516602 C-46.33925781 469.16561523 -46.33925781 469.16561523 -47.38476562 469.03344727 C-51.03393443 468.11385673 -53.99005314 466.39467186 -57.18945312 464.48266602 C-57.77597656 464.13913086 -58.3625 463.7955957 -58.96679688 463.44165039 C-60.15670366 462.74470499 -61.34517314 462.04530014 -62.53222656 461.34350586 C-66.4987157 459.01034088 -70.50925749 456.75288725 -74.50976562 454.47875977 C-80.8143803 450.87637397 -87.06847698 447.18566633 -93.33398438 443.51586914 C-98.70741815 440.3751547 -104.09221979 437.2793754 -109.57666016 434.3359375 C-111.31445312 433.29516602 -111.31445312 433.29516602 -113.31445312 431.29516602 C-115.0026331 430.38188832 -116.71394803 429.5107967 -118.43945312 428.67016602 C-119.34953125 428.22415039 -120.25960937 427.77813477 -121.19726562 427.31860352 C-121.8959375 426.98086914 -122.59460938 426.64313477 -123.31445312 426.29516602 C-123.31445312 425.63516602 -123.31445312 424.97516602 -123.31445312 424.29516602 C-124.02730469 424.19333008 -124.74015625 424.09149414 -125.47460938 423.98657227 C-128.69200918 423.20324384 -130.9257591 421.95346931 -133.75195312 420.23266602 C-134.79867187 419.60489258 -135.84539062 418.97711914 -136.92382812 418.33032227 C-138.04273438 417.6587207 -139.16164063 416.98711914 -140.31445312 416.29516602 C-142.7029088 414.90715533 -145.1015029 413.53730555 -147.50195312 412.17016602 C-148.10007812 411.82840332 -148.69820313 411.48664063 -149.31445312 411.13452148 C-152.44573094 409.34806514 -155.58920468 407.58766564 -158.75195312 405.85766602 C-164.14404586 402.87994316 -169.40141838 399.67601317 -174.66992188 396.48657227 C-176.80531527 395.19541698 -178.94720406 393.93422441 -181.11523438 392.69750977 C-197.98155135 383.04040004 -210.43370258 368.62587219 -216.46641541 350.04190063 C-218.23794688 342.21505738 -217.86837253 334.19942866 -217.83203125 326.21313477 C-217.83745992 324.20129898 -217.84458674 322.18946718 -217.85327148 320.17764282 C-217.87141907 314.74373647 -217.86447276 309.31013583 -217.85175514 303.87622452 C-217.84158296 298.17235784 -217.85103249 292.46851622 -217.8572998 286.76464844 C-217.86456395 277.18851046 -217.85502087 267.61249613 -217.8359375 258.03637695 C-217.81417122 246.98680428 -217.82122346 235.93752691 -217.84324312 224.88796139 C-217.86143226 215.37760623 -217.86393827 205.86733964 -217.85348845 196.35697269 C-217.84727283 190.68710049 -217.84636455 185.0173668 -217.8596344 179.34750366 C-217.87124347 174.01540778 -217.86307505 168.68369027 -217.84005737 163.35163498 C-217.83479722 161.40225221 -217.83623751 159.45283724 -217.84510803 157.50346756 C-217.91754325 139.95917031 -214.33910789 126.29945721 -203.31445312 112.29516602 C-202.65445313 112.29516602 -201.99445313 112.29516602 -201.31445312 112.29516602 C-201.06050781 111.7215332 -200.8065625 111.14790039 -200.54492188 110.55688477 C-195.55970056 101.3935732 -185.94183339 96.22426456 -177.14160156 91.32397461 C-175.88436106 90.61606287 -174.63800867 89.88857421 -173.40136719 89.14526367 C-168.63242908 86.29516602 -168.63242908 86.29516602 -165.31445312 86.29516602 C-165.31445312 85.63516602 -165.31445312 84.97516602 -165.31445312 84.29516602 C-162.66706396 82.83453751 -161.41996978 82.29516602 -158.31445312 82.29516602 C-158.31445312 81.63516602 -158.31445312 80.97516602 -158.31445312 80.29516602 C-155.66706396 78.83453751 -154.41996978 78.29516602 -151.31445312 78.29516602 C-151.31445312 77.63516602 -151.31445312 76.97516602 -151.31445312 76.29516602 C-150.69441406 75.96645508 -150.074375 75.63774414 -149.43554688 75.29907227 C-143.80262167 72.27352729 -138.28110531 69.10837278 -132.81445312 65.79516602 C-127.71121155 62.7037609 -122.56190058 59.76407487 -117.30273438 56.94360352 C-113.53257162 54.8638536 -109.83166488 52.67631098 -106.12695312 50.48266602 C-100.24988056 47.0123128 -94.36516145 43.556965 -88.43945312 40.17016602 C-87.76760986 39.77982178 -87.0957666 39.38947754 -86.40356445 38.98730469 C-81.66068013 36.29516602 -81.66068013 36.29516602 -78.31445312 36.29516602 C-77.98445312 35.63516602 -77.65445313 34.97516602 -77.31445312 34.29516602 C-76.32445312 33.96516602 -75.33445313 33.63516602 -74.31445312 33.29516602 C-73.86046143 32.83674316 -73.40646973 32.37832031 -72.9387207 31.90600586 C-70.92658533 29.91050471 -68.83700002 28.83301748 -66.32617188 27.52172852 C-59.51561756 23.89286973 -52.91706965 19.94371207 -46.30078125 15.97485352 C-31.73569244 7.29516602 -31.73569244 7.29516602 -27.31445312 7.29516602 C-27.31445312 6.63516602 -27.31445312 5.97516602 -27.31445312 5.29516602 C-25.73245681 4.64606448 -24.14879589 4.00101907 -22.56445312 3.35766602 C-21.241875 2.81819336 -21.241875 2.81819336 -19.89257812 2.26782227 C-13.37089732 -0.19263004 -6.88897368 0.03791102 0 0 Z " fill="#FFFFFF" transform="translate(247.314453125,6.704833984375)"/>
<path d="M0 0 C5.08367787 4.37432747 5.19832094 9.999673 5.89257812 16.31860352 C5.99694687 17.21689377 6.10131561 18.11518402 6.20884705 19.04069519 C6.55193783 22.00689584 6.88524947 24.97411341 7.21875 27.94140625 C7.4570259 30.01309604 7.69600968 32.08470453 7.93566895 34.15623474 C8.56555296 39.61388223 9.18757683 45.07239462 9.80743408 50.53118896 C10.79762683 59.24288154 11.79817643 67.95338224 12.80162048 76.66355705 C13.14912738 79.69183759 13.49236965 82.72057864 13.83508301 85.74940491 C14.88841156 94.98435934 15.98111952 104.17088783 17.6875 113.3125 C17.818647 112.51371933 17.94979401 111.71493866 18.08491516 110.89195251 C19.32592663 103.34324569 20.5755494 95.79603805 21.83472919 88.25034237 C22.4816959 84.37151345 23.1253865 80.49220125 23.76147461 76.61157227 C24.37611794 72.86254136 24.99951726 69.11506042 25.6288662 65.36847115 C25.86676894 63.94294969 26.10157831 62.51690822 26.33315468 61.09034538 C29.07603845 44.22241429 29.07603845 44.22241429 33.875 38.875 C37.51962521 36.85020822 40.60097178 36.45340032 44.6875 37.3125 C47.58845484 38.73598809 49.3294972 39.67464641 50.92938232 42.52516174 C53.37372626 49.98817749 55.35256584 57.5062439 57.140625 65.15234375 C57.44834575 66.44993998 57.75652117 67.74742846 58.06512451 69.04481506 C58.7044725 71.73895788 59.33933301 74.43410367 59.97070312 77.13012695 C60.77899597 80.5805924 61.59724848 84.02860355 62.41862869 87.47597408 C63.20563355 90.78366541 63.98542508 94.09304051 64.765625 97.40234375 C65.05930969 98.63774399 65.35299438 99.87314423 65.65557861 101.14598083 C65.92295837 102.29139847 66.19033813 103.4368161 66.46582031 104.61694336 C66.70246399 105.62301132 66.93910767 106.62907928 67.18292236 107.66563416 C67.6875 110.3125 67.6875 110.3125 67.6875 114.3125 C68.3475 114.3125 69.0075 114.3125 69.6875 114.3125 C69.91953125 113.54035156 70.1515625 112.76820313 70.390625 111.97265625 C72.12094861 107.08918268 74.24904213 102.44280921 76.4375 97.75 C76.85515625 96.81736328 77.2728125 95.88472656 77.703125 94.92382812 C78.1259375 94.01955078 78.54875 93.11527344 78.984375 92.18359375 C79.35916992 91.36818115 79.73396484 90.55276855 80.12011719 89.71264648 C82.2098868 86.5125647 84.33253551 84.1341718 87.6875 82.3125 C91.44370224 81.584168 95.13704149 81.63917198 98.95361328 81.68139648 C100.07947845 81.67424118 101.20534363 81.66708588 102.36532593 81.65971375 C106.0799031 81.64283017 109.79327312 81.66222675 113.5078125 81.68359375 C116.09040426 81.68276515 118.67299596 81.6803061 121.25558472 81.67628479 C126.6642179 81.67342714 132.07240511 81.68759703 137.48095703 81.71557617 C143.73074136 81.74765814 149.97990192 81.74759808 156.22973073 81.7303614 C162.2494168 81.71449241 168.26881279 81.72132781 174.28850937 81.73829842 C176.8474158 81.74348727 179.4063402 81.74298995 181.96524429 81.73675346 C185.53728395 81.7313149 189.10825754 81.75163364 192.68017578 81.77905273 C193.74105408 81.77252686 194.80193237 81.76600098 195.8949585 81.75927734 C203.04804466 81.85283473 203.04804466 81.85283473 206.34225464 84.22084045 C207.79173136 86.47456451 208.22905381 87.65305606 208.1875 90.3125 C208.20296875 91.3025 208.20296875 91.3025 208.21875 92.3125 C207.6875 94.3125 207.6875 94.3125 203.6875 98.3125 C199.7275 98.3125 195.7675 98.3125 191.6875 98.3125 C191.6875 115.8025 191.6875 133.2925 191.6875 151.3125 C195.6475 151.3125 199.6075 151.3125 203.6875 151.3125 C207.6875 155.3125 207.6875 155.3125 208.21875 157.3125 C208.2084375 157.9725 208.198125 158.6325 208.1875 159.3125 C208.20296875 160.3025 208.20296875 160.3025 208.21875 161.3125 C207.40507247 164.3757566 206.23291824 165.40245882 203.6875 167.3125 C200.61770039 167.91572294 197.58919398 167.87300553 194.46875 167.84375 C193.57385864 167.8475769 192.67896729 167.85140381 191.75695801 167.85534668 C189.86742018 167.8580652 187.97784468 167.85070816 186.08837891 167.83398438 C183.1973881 167.81257323 180.30888233 167.83378734 177.41796875 167.859375 C175.58072369 167.85673171 173.74348017 167.85160671 171.90625 167.84375 C170.61080261 167.85589539 170.61080261 167.85589539 169.28918457 167.86828613 C163.30363957 167.77484129 163.30363957 167.77484129 160.14453125 165.40429688 C158.56791016 163.14081003 158.14483901 162.04280308 158.1875 159.3125 C158.17203125 158.3225 158.17203125 158.3225 158.15625 157.3125 C158.6875 155.3125 158.6875 155.3125 162.6875 151.3125 C166.6475 151.3125 170.6075 151.3125 174.6875 151.3125 C174.6875 133.8225 174.6875 116.3325 174.6875 98.3125 C160.1675 98.6425 145.6475 98.9725 130.6875 99.3125 C138.48058962 117.03413986 138.48058962 117.03413986 146.5625 134.625 C148.78300009 139.36061198 150.99595901 144.09756296 153.125 148.875 C153.61871094 149.96941406 154.11242187 151.06382812 154.62109375 152.19140625 C155.75044023 155.49670968 156.05299094 157.8476459 155.6875 161.3125 C153.22709272 164.64128632 151.79139613 166.10551948 147.6875 166.875 C143.79693431 166.14551893 142.51469343 165.12278944 139.6875 162.3125 C137.81623405 159.04897989 136.34531692 155.6467814 134.875 152.1875 C134.46830078 151.26839844 134.06160156 150.34929687 133.64257812 149.40234375 C130.6875 142.63794643 130.6875 142.63794643 130.6875 140.3125 C117.3225 140.8075 117.3225 140.8075 103.6875 141.3125 C100.56438213 148.41224663 100.56438213 148.41224663 97.46582031 155.52270508 C96.87172363 156.85144653 96.87172363 156.85144653 96.265625 158.20703125 C95.86762695 159.11300049 95.46962891 160.01896973 95.05957031 160.95239258 C93.54492035 163.55775223 92.27518346 164.7929882 89.6875 166.3125 C85.76153706 166.80324537 83.6186131 166.94957739 80.3125 164.6875 C78.27704234 161.71260034 77.91242239 159.9197159 77.6875 156.3125 C78.58377872 153.58836863 79.52612097 151.19873887 80.73828125 148.625 C81.06821579 147.89295349 81.39815033 147.16090698 81.73808289 146.40667725 C82.81105191 144.03512637 83.90517524 141.6740296 85 139.3125 C85.7390238 137.68976155 86.47664991 136.06638585 87.21289062 134.44238281 C89.0249191 130.45331293 90.85324771 126.47196891 92.68609619 122.49243164 C94.12990626 119.34943656 95.55589071 116.19863606 96.98046875 113.046875 C99.20337016 108.12948936 101.43977707 103.21858755 103.6875 98.3125 C100.60613699 98.30031588 98.54122207 98.31122639 95.6875 99.3125 C93.45200487 101.7360184 92.2766714 104.54758766 90.9609375 107.546875 C90.36667465 108.79213959 90.36667465 108.79213959 89.76040649 110.06256104 C88.49847198 112.71656813 87.27840264 115.38712911 86.0625 118.0625 C84.83423113 120.72053554 83.59728076 123.37364734 82.34317017 126.01959229 C81.56543933 127.66476844 80.80314085 129.31735822 80.05892944 130.97796631 C77.66897065 136.08820839 75.34161792 139.07711686 70.6875 142.3125 C67.24424787 143.18862999 63.90858206 142.78375833 60.57415771 141.49688721 C55.10649952 138.06445515 53.80066659 129.5945703 52.40472412 123.73297119 C52.16288391 122.67124695 51.9210437 121.60952271 51.671875 120.515625 C51.28083588 118.84883698 51.28083588 118.84883698 50.88189697 117.14837646 C50.33611106 114.81307605 49.79515454 112.47664221 49.25878906 110.13916016 C48.43635489 106.5575131 47.59835082 102.97978077 46.7578125 99.40234375 C46.22825416 97.12781643 45.69957735 94.85308364 45.171875 92.578125 C44.7969693 90.97339325 44.7969693 90.97339325 44.41448975 89.33624268 C44.07348236 87.84384064 44.07348236 87.84384064 43.72558594 86.32128906 C43.52447205 85.44829163 43.32335815 84.57529419 43.1161499 83.67584229 C42.6875 81.3125 42.6875 81.3125 42.6875 77.3125 C42.0275 77.3125 41.3675 77.3125 40.6875 77.3125 C40.6452681 77.9899527 40.60303619 78.6674054 40.55952454 79.36538696 C39.92468908 88.19569296 38.58034534 96.86570903 37.10546875 105.5859375 C36.84741933 107.1238271 36.58938848 108.66171982 36.33137512 110.19961548 C35.79304989 113.39887906 35.25018352 116.59733699 34.70483398 119.79541016 C34.00903452 123.88171193 33.33147854 127.97082169 32.65803051 132.06085777 C32.13327304 135.2281875 31.59554098 138.39321554 31.05425453 141.55775833 C30.79872964 143.06475527 30.54796785 144.57256834 30.30220604 146.0811882 C29.95757675 148.18871466 29.59467386 150.29233275 29.22729492 152.39599609 C29.02601486 153.59002045 28.8247348 154.7840448 28.61735535 156.01425171 C27.39980399 160.33297366 25.4978494 163.93913149 21.875 166.6875 C17.13988175 168.04039093 13.77056344 167.8642493 9.375 165.625 C4.2491834 161.21441362 4.16403933 155.50226578 3.46655273 149.13183594 C3.3605777 148.21587646 3.25460266 147.29991699 3.14541626 146.35620117 C2.79759407 143.33711906 2.45948146 140.31702775 2.12109375 137.296875 C1.88045987 135.19882917 1.63908096 133.10086868 1.39698792 131.00299072 C0.76188154 125.48686482 0.13440774 119.96990115 -0.49072266 114.45263672 C-1.49341015 105.60681805 -2.50375312 96.76189169 -3.52149773 87.91779327 C-3.87602102 84.82206904 -4.22490179 81.72574331 -4.57337952 78.6293335 C-4.78901462 76.7447257 -5.00485893 74.86014182 -5.22094727 72.97558594 C-5.31706802 72.10806702 -5.41318878 71.2405481 -5.51222229 70.34674072 C-5.6306621 66.51122212 -5.6306621 66.51122212 -7.3125 63.3125 C-7.4025018 64.07797622 -7.4925036 64.84345243 -7.58523273 65.6321249 C-9.78907725 84.37591145 -11.99325461 103.11965882 -14.19778919 121.86336422 C-15.2639363 130.92817784 -16.32997632 139.99300403 -17.39575195 149.05786133 C-18.32615875 156.97134895 -19.256779 164.88481144 -20.18764132 172.79824549 C-20.67917236 176.97690345 -21.17060622 181.15557279 -21.66178322 185.33427238 C-21.80282224 186.53398531 -21.80282224 186.53398531 -21.94671053 187.75793487 C-22.13325745 189.34491095 -22.3197462 190.93189387 -22.50617462 192.51888388 C-22.95084227 196.30230988 -23.39705744 200.08553971 -23.84696674 203.86834621 C-24.63809168 210.52712562 -25.41380742 217.18615704 -26.13656616 223.85281372 C-26.2649396 225.00512513 -26.39331305 226.15743654 -26.52557659 227.34466648 C-26.75854691 229.44157154 -26.98336699 231.53940802 -27.19772816 233.63829708 C-27.81019294 239.06434589 -28.736793 243.46863877 -31.3125 248.3125 C-34.2644672 250.22728954 -35.92841724 250.32786331 -39.4375 250.1875 C-42.84732761 249.14972638 -43.51602963 248.31789654 -45.3125 245.3125 C-45.64055848 243.08087134 -45.64055848 243.08087134 -45.56238174 240.6784935 C-45.53477154 239.79632392 -45.50716134 238.91415435 -45.47871447 238.00525236 C-45.21933599 233.80319938 -44.81302716 229.63665078 -44.31439209 225.456604 C-44.20695844 224.51715966 -44.09952479 223.57771532 -43.98883557 222.60980296 C-43.63052803 219.48953386 -43.26404151 216.37028369 -42.89746094 213.25097656 C-42.63749653 211.00315947 -42.37799218 208.75528914 -42.11891174 206.50737 C-41.41583213 200.42235306 -40.70513413 194.33825035 -39.99214077 188.25438786 C-39.5467759 184.452279 -39.10283245 180.65000681 -38.6593399 176.84767914 C-37.4297026 166.30745232 -36.19820473 155.76744851 -34.95866013 145.22838211 C-34.83998124 144.21929852 -34.83998124 144.21929852 -34.71890481 143.18982939 C-34.55853276 141.82629408 -34.3981605 140.46275879 -34.23778805 139.09922352 C-34.15819006 138.42243191 -34.07859208 137.7456403 -33.99658203 137.04833984 C-33.91688467 136.37071794 -33.83718732 135.69309603 -33.75507489 134.99494013 C-32.46211373 123.99821947 -31.18403822 112.99982401 -29.91236517 102.00062326 C-28.60470087 90.6919276 -27.28458698 79.38475333 -25.95274377 68.07887435 C-25.2059475 61.73715331 -24.46440552 55.3949227 -23.73571014 49.05109406 C-23.05065243 43.09036938 -22.35018097 37.13165823 -21.6377697 31.17414284 C-21.37897473 28.98746782 -21.12573681 26.80012691 -20.87845802 24.61211967 C-20.5401396 21.62623214 -20.18189308 18.64339092 -19.81854248 15.66046143 C-19.72513824 14.79373251 -19.631734 13.9270036 -19.53549933 13.03401017 C-18.86343341 7.74081986 -17.680015 4.48478205 -14.3125 0.3125 C-9.8643659 -3.06194656 -4.75365847 -2.42167507 0 0 Z M116.6875 111.3125 C115.84930842 112.93499941 115.0170884 114.56058497 114.1875 116.1875 C113.7234375 117.09242188 113.259375 117.99734375 112.78125 118.9296875 C111.54844411 121.17846859 111.54844411 121.17846859 111.6875 123.3125 C115.3175 123.3125 118.9475 123.3125 122.6875 123.3125 C121.0375 119.3525 119.3875 115.3925 117.6875 111.3125 C117.3575 111.3125 117.0275 111.3125 116.6875 111.3125 Z " fill="#FFFFFF" transform="translate(215.3125,132.6875)"/>
</svg>
