<?xml version="1.0" encoding="UTF-8"?>
<svg version="1.1" xmlns="http://www.w3.org/2000/svg" width="500" height="500">
<path d="M0 0 C1.4428087 -0.01144319 2.88557769 -0.03177172 4.328125 -0.06152344 C17.57331491 -0.33416477 28.01582156 2.40679009 39.62304688 8.85766602 C40.33783203 9.24374023 41.05261719 9.62981445 41.7890625 10.02758789 C44.59577384 11.55167629 47.37016443 13.10586029 50.10888672 14.74975586 C52.61758687 16.25440546 55.14938355 17.7056869 57.69726562 19.14282227 C58.61958984 19.66553711 59.54191406 20.18825195 60.4921875 20.72680664 C62.42331085 21.82001884 64.35561739 22.91114345 66.2890625 24.00024414 C67.20751953 24.52166992 68.12597656 25.0430957 69.07226562 25.58032227 C69.90975342 26.05348877 70.74724121 26.52665527 71.61010742 27.01416016 C73.68554687 28.29516602 73.68554687 28.29516602 75.68554688 30.29516602 C76.67554688 30.62516602 77.66554688 30.95516602 78.68554688 31.29516602 C78.68554688 31.95516602 78.68554688 32.61516602 78.68554688 33.29516602 C79.46929687 33.43954102 80.25304687 33.58391602 81.06054688 33.73266602 C83.68554688 34.29516602 83.68554688 34.29516602 85.68554688 35.29516602 C85.68554688 35.95516602 85.68554688 36.61516602 85.68554688 37.29516602 C86.40323242 37.4038501 87.12091797 37.51253418 87.86035156 37.62451172 C90.92843407 38.35282339 93.15225368 39.46729921 95.88867188 41.02563477 C96.86964844 41.58186523 97.850625 42.1380957 98.86132812 42.71118164 C99.87582031 43.29577148 100.8903125 43.88036133 101.93554688 44.48266602 C102.93457031 45.04791992 103.93359375 45.61317383 104.96289062 46.19555664 C110.36497137 49.27792036 115.58331456 52.51834669 120.72436523 56.01635742 C123.27235407 57.67779966 125.94869293 58.97303224 128.68554688 60.29516602 C131.10843956 61.68838185 133.48901338 63.14919483 135.87304688 64.60766602 C142.72511267 68.76056145 149.61967127 72.88500976 156.86132812 76.33032227 C158.68554688 77.29516602 158.68554688 77.29516602 160.68554688 79.29516602 C162.3354627 80.0022728 164.00116943 80.6746059 165.68554688 81.29516602 C165.68554688 81.95516602 165.68554688 82.61516602 165.68554688 83.29516602 C166.46929687 83.43954102 167.25304687 83.58391602 168.06054688 83.73266602 C170.68554688 84.29516602 170.68554688 84.29516602 172.68554688 85.29516602 C172.68554688 85.95516602 172.68554688 86.61516602 172.68554688 87.29516602 C173.37648438 87.38668945 174.06742187 87.47821289 174.77929688 87.57250977 C178.34873347 88.46007129 181.01204973 89.99796757 184.18554688 91.85766602 C184.79575684 92.2133667 185.4059668 92.56906738 186.03466797 92.93554688 C191.24339196 95.98863567 196.37923121 99.15973152 201.50976562 102.34204102 C208.43099886 106.59864202 215.38779861 110.71615251 222.68554688 114.29516602 C222.68554688 115.61516602 222.68554688 116.93516602 222.68554688 118.29516602 C220.84057617 119.84741211 220.84057617 119.84741211 218.25976562 121.31860352 C217.31681641 121.86516602 216.37386719 122.41172852 215.40234375 122.97485352 C214.40267578 123.53430664 213.40300781 124.09375977 212.37304688 124.67016602 C211.41591797 125.22188477 210.45878906 125.77360352 209.47265625 126.34204102 C204.66782544 129.09875203 199.8210122 131.77250913 194.95117188 134.41235352 C190.47541746 136.84231201 186.09274781 139.38929984 181.74804688 142.04516602 C171.49512045 148.29516602 171.49512045 148.29516602 167.68554688 148.29516602 C167.35554688 148.95516602 167.02554687 149.61516602 166.68554688 150.29516602 C164.25164774 151.94145302 161.81312752 153.50992904 159.31054688 155.04516602 C158.58029297 155.49690186 157.85003906 155.9486377 157.09765625 156.4140625 C152.3494723 159.33043055 147.55283117 162.1090679 142.62304688 164.70922852 C140.23860218 165.99657499 137.89893806 167.3260054 135.56054688 168.69360352 C134.83802734 169.11246826 134.11550781 169.53133301 133.37109375 169.96289062 C131.93549001 170.79695844 130.50431538 171.63870587 129.078125 172.48876953 C127.32301595 173.50158135 125.5070898 174.40737273 123.68554688 175.29516602 C122.69554687 174.96516602 121.70554687 174.63516602 120.68554688 174.29516602 C120.68554688 174.95516602 120.68554688 175.61516602 120.68554688 176.29516602 C116.00649038 177.72753025 111.55366846 178.66411322 106.68554688 179.29516602 C105.96109375 179.46532227 105.23664063 179.63547852 104.49023438 179.81079102 C95.35040604 181.38925719 84.53074986 181.20092485 75.68554688 178.29516602 C74.7496875 178.00319336 74.7496875 178.00319336 73.79492188 177.70532227 C65.68809614 174.92066058 57.98314065 170.74938295 50.68554688 166.29516602 C49.63367188 165.69704102 48.58179688 165.09891602 47.49804688 164.48266602 C44.67924117 162.87969711 41.89759065 161.22353758 39.12304688 159.54516602 C32.08470509 155.30494176 24.93658242 151.25256858 17.77734375 147.22045898 C15.27065244 145.80281465 12.85126042 144.42188814 10.56054688 142.67016602 C8.38820547 141.07711565 6.2101515 140.2068288 3.68554688 139.29516602 C3.68554688 138.63516602 3.68554688 137.97516602 3.68554688 137.29516602 C2.03554687 136.96516602 0.38554687 136.63516602 -1.31445312 136.29516602 C-1.31445312 135.63516602 -1.31445312 134.97516602 -1.31445312 134.29516602 C-2.38373047 134.14241211 -2.38373047 134.14241211 -3.47460938 133.98657227 C-6.69200918 133.20324384 -8.9257591 131.95346931 -11.75195312 130.23266602 C-16.4941986 127.3861376 -21.25692316 124.59174512 -26.06445312 121.85766602 C-27.26760351 121.17151261 -28.47073074 120.4853186 -29.67382812 119.79907227 C-30.54523438 119.3027832 -31.41664063 118.80649414 -32.31445312 118.29516602 C-32.31445312 117.63516602 -32.31445312 116.97516602 -32.31445312 116.29516602 C-33.02988281 116.19204102 -33.7453125 116.08891602 -34.48242188 115.98266602 C-37.66061317 115.21113268 -39.83847867 113.99901462 -42.62695312 112.29516602 C-43.66980469 111.6699707 -44.71265625 111.04477539 -45.78710938 110.40063477 C-46.35059082 110.06209473 -46.91407227 109.72355469 -47.49462891 109.37475586 C-50.82194189 107.4008656 -54.19330676 105.50539131 -57.56445312 103.60766602 C-58.53765503 103.055625 -58.53765503 103.055625 -59.53051758 102.49243164 C-62.85513257 100.61988432 -66.20395985 98.80128778 -69.59570312 97.05297852 C-70.23056641 96.72571777 -70.86542969 96.39845703 -71.51953125 96.0612793 C-74.26655863 94.88878584 -76.3889185 94.82974005 -79.31445312 95.29516602 C-81.54189099 96.7149451 -81.54189099 96.7149451 -83.31445312 98.29516602 C-83.97445312 98.29516602 -84.63445312 98.29516602 -85.31445312 98.29516602 C-85.62382812 99.22329102 -85.93320313 100.15141602 -86.25195312 101.10766602 C-86.93945312 103.17016602 -87.62695312 105.23266602 -88.31445312 107.29516602 C-88.40799707 108.83589406 -88.44533758 110.38035432 -88.4486742 111.92391586 C-88.45536097 113.35807582 -88.45536097 113.35807582 -88.46218282 114.82120872 C-88.46199846 115.87381519 -88.46181409 116.92642166 -88.46162415 118.01092529 C-88.46530083 119.12744295 -88.46897752 120.24396061 -88.47276562 121.39431214 C-88.48382486 125.15521333 -88.48765009 128.91608692 -88.49145508 132.67700195 C-88.49771798 135.36556158 -88.50435164 138.05411823 -88.5113678 140.74267578 C-88.53113033 148.82457958 -88.54119789 156.90648462 -88.55009559 164.98840654 C-88.5544786 168.79397118 -88.55984536 172.59953442 -88.56508446 176.40509796 C-88.58209609 189.05485114 -88.59659061 201.70460344 -88.6038332 214.3543663 C-88.6057431 217.63704174 -88.60766343 220.91971717 -88.60961914 224.20239258 C-88.61010288 225.01828835 -88.61058662 225.83418412 -88.61108502 226.674804 C-88.61938665 239.89397424 -88.64472608 253.11305403 -88.67719982 266.33218476 C-88.71026495 279.90263428 -88.72828144 293.47303782 -88.73147744 307.04352784 C-88.73364298 314.6634318 -88.74239811 322.28320383 -88.76793861 329.90306854 C-88.78963815 336.39199588 -88.79769976 342.88075925 -88.78797183 349.36971876 C-88.78342493 352.68003936 -88.78751459 355.98995071 -88.80473328 359.30023956 C-88.82236698 362.89093742 -88.81538696 366.48077442 -88.80220032 370.07147217 C-88.81316956 371.11515575 -88.82413881 372.15883934 -88.83544046 373.23414969 C-88.77237301 380.33796357 -87.62297017 384.90753226 -82.51757812 390.13500977 C-79.9329892 391.58754874 -78.30909995 392.15333565 -75.31445312 392.29516602 C-69.57486073 390.62246718 -64.41212228 387.34066857 -59.31445312 384.29516602 C-57.99960937 383.53719727 -57.99960937 383.53719727 -56.65820312 382.76391602 C-54.18787077 381.30878874 -51.75339366 379.80237646 -49.31445312 378.29516602 C-46.34396649 376.48878901 -43.36225683 374.70192458 -40.37695312 372.92016602 C-39.63002197 372.46657715 -38.88309082 372.01298828 -38.11352539 371.5456543 C-37.05476196 370.91506104 -37.05476196 370.91506104 -35.97460938 370.27172852 C-35.34176025 369.89097168 -34.70891113 369.51021484 -34.05688477 369.11791992 C-32.31445312 368.29516602 -32.31445312 368.29516602 -29.31445312 368.29516602 C-29.31445312 367.63516602 -29.31445312 366.97516602 -29.31445312 366.29516602 C-28.30382812 365.82079102 -27.29320312 365.34641602 -26.25195312 364.85766602 C-21.19832846 362.34446308 -16.41030363 359.40590546 -11.59545898 356.46923828 C-3.09496216 351.29516602 -3.09496216 351.29516602 0.68554688 351.29516602 C0.68554688 350.63516602 0.68554688 349.97516602 0.68554688 349.29516602 C2.48632812 347.99829102 2.48632812 347.99829102 4.99804688 346.54516602 C5.92359375 346.00762695 6.84914062 345.47008789 7.80273438 344.91625977 C11.29312465 342.95350643 14.80958889 341.04424131 18.33789062 339.15063477 C21.08538449 337.62781145 23.79608151 336.06556292 26.50195312 334.47094727 C27.35474854 333.96974365 28.20754395 333.46854004 29.08618164 332.95214844 C30.80212776 331.94082488 32.51493763 330.9241586 34.22436523 329.90185547 C35.41171265 329.20322388 35.41171265 329.20322388 36.62304688 328.49047852 C37.33332031 328.06782715 38.04359375 327.64517578 38.77539062 327.2097168 C40.68554688 326.29516602 40.68554688 326.29516602 43.68554688 326.29516602 C43.68554688 325.63516602 43.68554688 324.97516602 43.68554688 324.29516602 C44.61367188 324.02704102 45.54179687 323.75891602 46.49804688 323.48266602 C49.58076445 322.59807426 49.58076445 322.59807426 50.95507812 320.96704102 C53.48506758 318.52271712 56.47986276 316.99818661 59.56054688 315.35766602 C60.2216748 315.00502686 60.88280273 314.6523877 61.56396484 314.2890625 C67.69871105 311.11761126 73.97769174 308.94877376 80.68554688 307.29516602 C81.44222656 307.10180664 82.19890625 306.90844727 82.97851562 306.70922852 C108.26075257 302.84210425 127.88666655 313.24909911 148.97070312 325.70141602 C152.10356071 327.54056119 155.27066695 329.30895448 158.45507812 331.05688477 C165.57197075 335.00794424 172.58983439 339.13535561 179.62304688 343.23266602 C181.1921582 344.14435547 181.1921582 344.14435547 182.79296875 345.07446289 C187.90609005 348.05363539 192.98920283 351.05636968 197.96899414 354.25439453 C199.82836661 355.38175975 201.73025979 356.34521389 203.68554688 357.29516602 C205.01888021 357.96183268 206.35221354 358.62849935 207.68554688 359.29516602 C207.68554688 359.95516602 207.68554688 360.61516602 207.68554688 361.29516602 C208.40097656 361.39700195 209.11640625 361.49883789 209.85351562 361.60375977 C213.03095726 362.37949379 215.23316522 363.62500685 217.99804688 365.35766602 C218.88105469 365.90551758 219.7640625 366.45336914 220.67382812 367.01782227 C221.66962891 367.65010742 221.66962891 367.65010742 222.68554688 368.29516602 C222.31454768 370.79676059 222.05522643 371.98499585 220.08398438 373.63891602 C219.41625 374.02047852 218.74851562 374.40204102 218.06054688 374.79516602 C216.98353516 375.4197168 216.98353516 375.4197168 215.88476562 376.05688477 C215.15902344 376.46551758 214.43328125 376.87415039 213.68554688 377.29516602 C213.03199219 377.69348633 212.3784375 378.09180664 211.70507812 378.50219727 C207.07644794 381.29516602 207.07644794 381.29516602 203.68554688 381.29516602 C203.68554688 381.95516602 203.68554688 382.61516602 203.68554688 383.29516602 C203.05390625 383.63547852 202.42226563 383.97579102 201.77148438 384.32641602 C190.69275567 390.32872436 179.77057601 396.51895008 169.11132812 403.24047852 C166.27213376 404.94334766 163.41715872 406.54216783 160.50585938 408.11547852 C154.66299734 411.27831526 148.95179182 414.63936087 143.24804688 418.04516602 C141.33342704 419.18704069 139.41809111 420.32771573 137.50195312 421.46704102 C136.67123291 421.96300781 135.8405127 422.45897461 134.98461914 422.9699707 C129.21576058 426.29516602 129.21576058 426.29516602 125.68554688 426.29516602 C125.35554688 426.95516602 125.02554687 427.61516602 124.68554688 428.29516602 C123.50992188 428.75922852 123.50992188 428.75922852 122.31054688 429.23266602 C119.72440756 430.06967888 119.72440756 430.06967888 118.40429688 431.63891602 C116.04568337 433.91176176 113.42279023 435.26716188 110.56054688 436.85766602 C109.30079207 437.56355591 108.04170735 438.27064266 106.78320312 438.97875977 C105.78571045 439.53926025 105.78571045 439.53926025 104.76806641 440.11108398 C101.15081465 442.16778633 97.57726253 444.29820245 93.99804688 446.42016602 C88.56117274 449.63593704 83.08534571 452.73607647 77.51757812 455.72094727 C73.21577307 458.11215752 69.0135573 460.66582463 64.81005859 463.22509766 C56.46079192 468.29516602 56.46079192 468.29516602 52.68554688 468.29516602 C52.35554688 468.95516602 52.02554687 469.61516602 51.68554688 470.29516602 C48.68554688 472.29516602 48.68554688 472.29516602 45.68554688 472.29516602 C45.35554688 472.95516602 45.02554687 473.61516602 44.68554688 474.29516602 C42.60400179 475.66702597 40.53248846 476.93291408 38.37304688 478.17016602 C37.81037109 478.50918945 37.24769531 478.84821289 36.66796875 479.19750977 C26.3955282 485.11569567 16.35606354 486.93830276 4.65771484 486.76171875 C2.5555174 486.73259634 0.45583178 486.74119124 -1.64648438 486.75415039 C-12.96174151 486.73923756 -21.63443945 484.64049516 -31.43945312 479.10766602 C-32.10976562 478.73963867 -32.78007812 478.37161133 -33.47070312 477.99243164 C-35.08998226 477.10182812 -36.70294684 476.19975821 -38.31445312 475.29516602 C-38.31445312 474.63516602 -38.31445312 473.97516602 -38.31445312 473.29516602 C-39.09820312 473.15079102 -39.88195312 473.00641602 -40.68945312 472.85766602 C-43.31445312 472.29516602 -43.31445312 472.29516602 -45.31445312 471.29516602 C-45.31445312 470.63516602 -45.31445312 469.97516602 -45.31445312 469.29516602 C-46.33925781 469.16561523 -46.33925781 469.16561523 -47.38476562 469.03344727 C-51.03393443 468.11385673 -53.99005314 466.39467186 -57.18945312 464.48266602 C-57.77597656 464.13913086 -58.3625 463.7955957 -58.96679688 463.44165039 C-60.15670366 462.74470499 -61.34517314 462.04530014 -62.53222656 461.34350586 C-66.4987157 459.01034088 -70.50925749 456.75288725 -74.50976562 454.47875977 C-80.8143803 450.87637397 -87.06847698 447.18566633 -93.33398438 443.51586914 C-98.70741815 440.3751547 -104.09221979 437.2793754 -109.57666016 434.3359375 C-111.31445312 433.29516602 -111.31445312 433.29516602 -113.31445312 431.29516602 C-115.0026331 430.38188832 -116.71394803 429.5107967 -118.43945312 428.67016602 C-119.34953125 428.22415039 -120.25960937 427.77813477 -121.19726562 427.31860352 C-121.8959375 426.98086914 -122.59460938 426.64313477 -123.31445312 426.29516602 C-123.31445312 425.63516602 -123.31445312 424.97516602 -123.31445312 424.29516602 C-124.02730469 424.19333008 -124.74015625 424.09149414 -125.47460938 423.98657227 C-128.69200918 423.20324384 -130.9257591 421.95346931 -133.75195312 420.23266602 C-134.79867187 419.60489258 -135.84539062 418.97711914 -136.92382812 418.33032227 C-138.04273438 417.6587207 -139.16164063 416.98711914 -140.31445312 416.29516602 C-142.7029088 414.90715533 -145.1015029 413.53730555 -147.50195312 412.17016602 C-148.10007812 411.82840332 -148.69820313 411.48664063 -149.31445312 411.13452148 C-152.44573094 409.34806514 -155.58920468 407.58766564 -158.75195312 405.85766602 C-164.14404586 402.87994316 -169.40141838 399.67601317 -174.66992188 396.48657227 C-176.80531527 395.19541698 -178.94720406 393.93422441 -181.11523438 392.69750977 C-197.98155135 383.04040004 -210.43370258 368.62587219 -216.46641541 350.04190063 C-218.23794688 342.21505738 -217.86837253 334.19942866 -217.83203125 326.21313477 C-217.83745992 324.20129898 -217.84458674 322.18946718 -217.85327148 320.17764282 C-217.87141907 314.74373647 -217.86447276 309.31013583 -217.85175514 303.87622452 C-217.84158296 298.17235784 -217.85103249 292.46851622 -217.8572998 286.76464844 C-217.86456395 277.18851046 -217.85502087 267.61249613 -217.8359375 258.03637695 C-217.81417122 246.98680428 -217.82122346 235.93752691 -217.84324312 224.88796139 C-217.86143226 215.37760623 -217.86393827 205.86733964 -217.85348845 196.35697269 C-217.84727283 190.68710049 -217.84636455 185.0173668 -217.8596344 179.34750366 C-217.87124347 174.01540778 -217.86307505 168.68369027 -217.84005737 163.35163498 C-217.83479722 161.40225221 -217.83623751 159.45283724 -217.84510803 157.50346756 C-217.91754325 139.95917031 -214.33910789 126.29945721 -203.31445312 112.29516602 C-202.65445313 112.29516602 -201.99445313 112.29516602 -201.31445312 112.29516602 C-201.06050781 111.7215332 -200.8065625 111.14790039 -200.54492188 110.55688477 C-195.55970056 101.3935732 -185.94183339 96.22426456 -177.14160156 91.32397461 C-175.88436106 90.61606287 -174.63800867 89.88857421 -173.40136719 89.14526367 C-168.63242908 86.29516602 -168.63242908 86.29516602 -165.31445312 86.29516602 C-165.31445312 85.63516602 -165.31445312 84.97516602 -165.31445312 84.29516602 C-162.66706396 82.83453751 -161.41996978 82.29516602 -158.31445312 82.29516602 C-158.31445312 81.63516602 -158.31445312 80.97516602 -158.31445312 80.29516602 C-155.66706396 78.83453751 -154.41996978 78.29516602 -151.31445312 78.29516602 C-151.31445312 77.63516602 -151.31445312 76.97516602 -151.31445312 76.29516602 C-150.69441406 75.96645508 -150.074375 75.63774414 -149.43554688 75.29907227 C-143.80262167 72.27352729 -138.28110531 69.10837278 -132.81445312 65.79516602 C-127.71121155 62.7037609 -122.56190058 59.76407487 -117.30273438 56.94360352 C-113.53257162 54.8638536 -109.83166488 52.67631098 -106.12695312 50.48266602 C-100.24988056 47.0123128 -94.36516145 43.556965 -88.43945312 40.17016602 C-87.76760986 39.77982178 -87.0957666 39.38947754 -86.40356445 38.98730469 C-81.66068013 36.29516602 -81.66068013 36.29516602 -78.31445312 36.29516602 C-77.98445312 35.63516602 -77.65445313 34.97516602 -77.31445312 34.29516602 C-76.32445312 33.96516602 -75.33445313 33.63516602 -74.31445312 33.29516602 C-73.86046143 32.83674316 -73.40646973 32.37832031 -72.9387207 31.90600586 C-70.92658533 29.91050471 -68.83700002 28.83301748 -66.32617188 27.52172852 C-59.51561756 23.89286973 -52.91706965 19.94371207 -46.30078125 15.97485352 C-31.73569244 7.29516602 -31.73569244 7.29516602 -27.31445312 7.29516602 C-27.31445312 6.63516602 -27.31445312 5.97516602 -27.31445312 5.29516602 C-25.73245681 4.64606448 -24.14879589 4.00101907 -22.56445312 3.35766602 C-21.241875 2.81819336 -21.241875 2.81819336 -19.89257812 2.26782227 C-13.37089732 -0.19263004 -6.88897368 0.03791102 0 0 Z " fill="#02DC9C" transform="translate(247.314453125,6.704833984375)"/>
<path d="M0 0 C1.4428087 -0.01144319 2.88557769 -0.03177172 4.328125 -0.06152344 C17.57331491 -0.33416477 28.01582156 2.40679009 39.62304688 8.85766602 C40.33783203 9.24374023 41.05261719 9.62981445 41.7890625 10.02758789 C44.59577384 11.55167629 47.37016443 13.10586029 50.10888672 14.74975586 C52.61758687 16.25440546 55.14938355 17.7056869 57.69726562 19.14282227 C58.61958984 19.66553711 59.54191406 20.18825195 60.4921875 20.72680664 C62.42331085 21.82001884 64.35561739 22.91114345 66.2890625 24.00024414 C67.20751953 24.52166992 68.12597656 25.0430957 69.07226562 25.58032227 C70.32849731 26.29007202 70.32849731 26.29007202 71.61010742 27.01416016 C73.68554688 28.29516602 73.68554688 28.29516602 75.68554688 30.29516602 C76.67554688 30.62516602 77.66554688 30.95516602 78.68554688 31.29516602 C78.68554688 31.95516602 78.68554688 32.61516602 78.68554688 33.29516602 C79.46929687 33.43954102 80.25304687 33.58391602 81.06054688 33.73266602 C83.68554688 34.29516602 83.68554688 34.29516602 85.68554688 35.29516602 C85.68554688 35.95516602 85.68554688 36.61516602 85.68554688 37.29516602 C86.40323242 37.4038501 87.12091797 37.51253418 87.86035156 37.62451172 C90.92843407 38.35282339 93.15225368 39.46729921 95.88867188 41.02563477 C96.86964844 41.58186523 97.850625 42.1380957 98.86132812 42.71118164 C99.87582031 43.29577148 100.8903125 43.88036133 101.93554688 44.48266602 C102.93457031 45.04791992 103.93359375 45.61317383 104.96289062 46.19555664 C110.36497137 49.27792036 115.58331456 52.51834669 120.72436523 56.01635742 C123.27235407 57.67779966 125.94869293 58.97303224 128.68554688 60.29516602 C131.10843956 61.68838185 133.48901338 63.14919483 135.87304688 64.60766602 C142.72511267 68.76056145 149.61967127 72.88500976 156.86132812 76.33032227 C158.68554688 77.29516602 158.68554688 77.29516602 160.68554688 79.29516602 C162.3354627 80.0022728 164.00116943 80.6746059 165.68554688 81.29516602 C165.68554688 81.95516602 165.68554688 82.61516602 165.68554688 83.29516602 C166.46929687 83.43954102 167.25304687 83.58391602 168.06054688 83.73266602 C170.68554688 84.29516602 170.68554688 84.29516602 172.68554688 85.29516602 C172.68554688 85.95516602 172.68554688 86.61516602 172.68554688 87.29516602 C173.37648438 87.38668945 174.06742187 87.47821289 174.77929688 87.57250977 C178.34873347 88.46007129 181.01204973 89.99796757 184.18554688 91.85766602 C184.79575684 92.2133667 185.4059668 92.56906738 186.03466797 92.93554688 C191.24339196 95.98863567 196.37923121 99.15973152 201.50976562 102.34204102 C208.43099886 106.59864202 215.38779861 110.71615251 222.68554688 114.29516602 C222.68554688 115.61516602 222.68554688 116.93516602 222.68554688 118.29516602 C220.84057617 119.84741211 220.84057617 119.84741211 218.25976562 121.31860352 C217.31681641 121.86516602 216.37386719 122.41172852 215.40234375 122.97485352 C214.40267578 123.53430664 213.40300781 124.09375977 212.37304688 124.67016602 C211.41591797 125.22188477 210.45878906 125.77360352 209.47265625 126.34204102 C204.66782544 129.09875203 199.8210122 131.77250913 194.95117188 134.41235352 C190.47541746 136.84231201 186.09274781 139.38929984 181.74804688 142.04516602 C171.49512045 148.29516602 171.49512045 148.29516602 167.68554688 148.29516602 C167.35554688 148.95516602 167.02554687 149.61516602 166.68554688 150.29516602 C164.25164774 151.94145302 161.81312752 153.50992904 159.31054688 155.04516602 C158.58029297 155.49690186 157.85003906 155.9486377 157.09765625 156.4140625 C152.3494723 159.33043055 147.55283117 162.1090679 142.62304688 164.70922852 C140.23860218 165.99657499 137.89893806 167.3260054 135.56054688 168.69360352 C134.83802734 169.11246826 134.11550781 169.53133301 133.37109375 169.96289062 C131.93549001 170.79695844 130.50431538 171.63870587 129.078125 172.48876953 C127.32301595 173.50158135 125.5070898 174.40737273 123.68554688 175.29516602 C122.69554687 174.96516602 121.70554687 174.63516602 120.68554688 174.29516602 C120.68554688 174.95516602 120.68554688 175.61516602 120.68554688 176.29516602 C116.00649038 177.72753025 111.55366846 178.66411322 106.68554688 179.29516602 C105.96109375 179.46532227 105.23664063 179.63547852 104.49023438 179.81079102 C95.35040604 181.38925719 84.53074986 181.20092485 75.68554688 178.29516602 C74.7496875 178.00319336 74.7496875 178.00319336 73.79492188 177.70532227 C65.68809614 174.92066058 57.98314065 170.74938295 50.68554688 166.29516602 C49.63367188 165.69704102 48.58179688 165.09891602 47.49804688 164.48266602 C44.67924117 162.87969711 41.89759065 161.22353758 39.12304688 159.54516602 C32.08470509 155.30494176 24.93658242 151.25256858 17.77734375 147.22045898 C15.27065244 145.80281465 12.85126042 144.42188814 10.56054688 142.67016602 C8.38820547 141.07711565 6.2101515 140.2068288 3.68554688 139.29516602 C3.68554688 138.63516602 3.68554688 137.97516602 3.68554688 137.29516602 C2.03554687 136.96516602 0.38554687 136.63516602 -1.31445312 136.29516602 C-1.31445312 135.63516602 -1.31445312 134.97516602 -1.31445312 134.29516602 C-2.02730469 134.19333008 -2.74015625 134.09149414 -3.47460938 133.98657227 C-6.69200918 133.20324384 -8.9257591 131.95346931 -11.75195312 130.23266602 C-16.4941986 127.3861376 -21.25692316 124.59174512 -26.06445312 121.85766602 C-27.26760351 121.17151261 -28.47073074 120.4853186 -29.67382812 119.79907227 C-30.54523438 119.3027832 -31.41664063 118.80649414 -32.31445312 118.29516602 C-32.31445312 117.63516602 -32.31445312 116.97516602 -32.31445312 116.29516602 C-33.02988281 116.19204102 -33.7453125 116.08891602 -34.48242188 115.98266602 C-37.66061317 115.21113268 -39.83847867 113.99901462 -42.62695312 112.29516602 C-44.19123047 111.35737305 -44.19123047 111.35737305 -45.78710938 110.40063477 C-46.35059082 110.06209473 -46.91407227 109.72355469 -47.49462891 109.37475586 C-50.82194189 107.4008656 -54.19330676 105.50539131 -57.56445312 103.60766602 C-58.21325439 103.23963867 -58.86205566 102.87161133 -59.53051758 102.49243164 C-62.85513257 100.61988432 -66.20395985 98.80128778 -69.59570312 97.05297852 C-70.23056641 96.72571777 -70.86542969 96.39845703 -71.51953125 96.0612793 C-74.26655863 94.88878584 -76.3889185 94.82974005 -79.31445312 95.29516602 C-81.54189099 96.7149451 -81.54189099 96.7149451 -83.31445312 98.29516602 C-83.97445312 98.29516602 -84.63445312 98.29516602 -85.31445312 98.29516602 C-85.60320312 99.26454102 -85.89195312 100.23391602 -86.18945312 101.23266602 C-87.31445312 104.29516602 -87.31445312 104.29516602 -89.31445312 105.29516602 C-91.30120007 80.24007952 -78.53527035 54.22571647 -63.31445312 35.29516602 C-62.73953125 34.56555664 -62.16460937 33.83594727 -61.57226562 33.08422852 C-56.83123842 27.34509033 -51.13998187 22.88870983 -45.31445312 18.29516602 C-42.50184559 16.01498625 -39.76355655 13.78637289 -37.31445312 11.10766602 C-34.44041836 8.50307201 -31.2072067 7.29516602 -27.31445312 7.29516602 C-27.31445312 6.63516602 -27.31445312 5.97516602 -27.31445312 5.29516602 C-25.73245681 4.64606448 -24.14879589 4.00101907 -22.56445312 3.35766602 C-21.68273437 2.99801758 -20.80101562 2.63836914 -19.89257812 2.26782227 C-13.37089732 -0.19263004 -6.88897368 0.03791102 0 0 Z " fill="#009694" transform="translate(247.314453125,6.704833984375)"/>
<path d="M0 0 C3.13285758 1.83914517 6.29996383 3.60753846 9.484375 5.35546875 C16.60126763 9.30652823 23.61913126 13.43393959 30.65234375 17.53125 C32.22145508 18.44293945 32.22145508 18.44293945 33.82226562 19.37304688 C38.93538692 22.35221937 44.0184997 25.35495366 48.99829102 28.55297852 C50.85766348 29.68034373 52.75955667 30.64379787 54.71484375 31.59375 C56.04817708 32.26041667 57.38151042 32.92708333 58.71484375 33.59375 C58.71484375 34.25375 58.71484375 34.91375 58.71484375 35.59375 C59.43027344 35.69558594 60.14570313 35.79742187 60.8828125 35.90234375 C64.06025414 36.67807778 66.2624621 37.92359083 69.02734375 39.65625 C69.91035156 40.20410156 70.79335938 40.75195312 71.703125 41.31640625 C72.69892578 41.94869141 72.69892578 41.94869141 73.71484375 42.59375 C73.34384455 45.09534458 73.0845233 46.28357984 71.11328125 47.9375 C70.11167969 48.50984375 70.11167969 48.50984375 69.08984375 49.09375 C68.37183594 49.51011719 67.65382813 49.92648437 66.9140625 50.35546875 C66.18832031 50.76410156 65.46257812 51.17273438 64.71484375 51.59375 C64.06128906 51.99207031 63.40773438 52.39039063 62.734375 52.80078125 C58.10574481 55.59375 58.10574481 55.59375 54.71484375 55.59375 C54.71484375 56.25375 54.71484375 56.91375 54.71484375 57.59375 C53.76738281 58.10421875 53.76738281 58.10421875 52.80078125 58.625 C41.72205254 64.62730835 30.79987288 70.81753406 20.140625 77.5390625 C17.30143063 79.24193164 14.4464556 80.84075181 11.53515625 82.4140625 C5.69229421 85.57689924 -0.01891131 88.93794485 -5.72265625 92.34375 C-7.63727608 93.48562467 -9.55261202 94.62629971 -11.46875 95.765625 C-12.29947021 96.2615918 -13.13019043 96.75755859 -13.98608398 97.26855469 C-19.75494254 100.59375 -19.75494254 100.59375 -23.28515625 100.59375 C-23.61515625 101.25375 -23.94515625 101.91375 -24.28515625 102.59375 C-25.06890625 102.903125 -25.85265625 103.2125 -26.66015625 103.53125 C-29.24629557 104.36826286 -29.24629557 104.36826286 -30.56640625 105.9375 C-32.92501976 108.21034575 -35.5479129 109.56574586 -38.41015625 111.15625 C-39.66991106 111.8621399 -40.92899577 112.56922664 -42.1875 113.27734375 C-42.85249512 113.65101074 -43.51749023 114.02467773 -44.20263672 114.40966797 C-47.81988848 116.46637032 -51.39344059 118.59678643 -54.97265625 120.71875 C-60.40953038 123.93452102 -65.88535741 127.03466046 -71.453125 130.01953125 C-75.75493005 132.41074151 -79.95714582 134.96440862 -84.16064453 137.52368164 C-92.5099112 142.59375 -92.5099112 142.59375 -96.28515625 142.59375 C-96.61515625 143.25375 -96.94515625 143.91375 -97.28515625 144.59375 C-100.28515625 146.59375 -100.28515625 146.59375 -103.28515625 146.59375 C-103.61515625 147.25375 -103.94515625 147.91375 -104.28515625 148.59375 C-106.36670134 149.96560996 -108.43821467 151.23149806 -110.59765625 152.46875 C-111.16033203 152.80777344 -111.72300781 153.14679688 -112.30273438 153.49609375 C-122.57517493 159.41427966 -132.61463959 161.23688675 -144.31298828 161.06030273 C-146.41518573 161.03118033 -148.51487135 161.03977523 -150.6171875 161.05273438 C-161.93244463 161.03782154 -170.60514257 158.93907915 -180.41015625 153.40625 C-181.08046875 153.03822266 -181.75078125 152.67019531 -182.44140625 152.29101562 C-184.06068538 151.4004121 -185.67364996 150.49834219 -187.28515625 149.59375 C-187.28515625 148.93375 -187.28515625 148.27375 -187.28515625 147.59375 C-188.06890625 147.51125 -188.85265625 147.42875 -189.66015625 147.34375 C-190.95953125 146.9725 -190.95953125 146.9725 -192.28515625 146.59375 C-192.96516662 145.2671724 -193.63024513 143.93289661 -194.28515625 142.59375 C-195.81472034 141.03940676 -195.81472034 141.03940676 -197.66015625 139.59375 C-220.01914358 120.47519562 -235.0206962 95.25775652 -238.28515625 65.59375 C-238.41353858 62.57012483 -238.38444077 59.62192782 -238.28515625 56.59375 C-236.63933452 58.22107935 -235.06040286 59.85061101 -233.53515625 61.59375 C-230.7178388 64.09803218 -227.99199839 65.86379574 -224.28515625 66.59375 C-221.38704448 65.96546726 -219.02833367 64.62874073 -216.47265625 63.15625 C-215.76616943 62.7751709 -215.05968262 62.3940918 -214.33178711 62.00146484 C-212.29856151 60.89395627 -210.28929083 59.75290096 -208.28515625 58.59375 C-207.40601563 58.08972656 -206.526875 57.58570313 -205.62109375 57.06640625 C-203.15646455 55.60541471 -200.7224518 54.09994388 -198.28515625 52.59375 C-195.31466962 50.787373 -192.33295996 49.00050856 -189.34765625 47.21875 C-188.6007251 46.76516113 -187.85379395 46.31157227 -187.08422852 45.84423828 C-186.37838623 45.42384277 -185.67254395 45.00344727 -184.9453125 44.5703125 C-184.31246338 44.18955566 -183.67961426 43.80879883 -183.02758789 43.41650391 C-181.28515625 42.59375 -181.28515625 42.59375 -178.28515625 42.59375 C-178.28515625 41.93375 -178.28515625 41.27375 -178.28515625 40.59375 C-177.27453125 40.119375 -176.26390625 39.645 -175.22265625 39.15625 C-170.16903158 36.64304707 -165.38100675 33.70448944 -160.56616211 30.76782227 C-152.06566528 25.59375 -152.06566528 25.59375 -148.28515625 25.59375 C-148.28515625 24.93375 -148.28515625 24.27375 -148.28515625 23.59375 C-146.484375 22.296875 -146.484375 22.296875 -143.97265625 20.84375 C-143.04710937 20.30621094 -142.1215625 19.76867187 -141.16796875 19.21484375 C-137.67757847 17.25209041 -134.16111423 15.34282529 -130.6328125 13.44921875 C-127.88531864 11.92639543 -125.17462162 10.3641469 -122.46875 8.76953125 C-121.18955688 8.01772583 -121.18955688 8.01772583 -119.88452148 7.25073242 C-118.16857536 6.23940887 -116.45576549 5.22274259 -114.74633789 4.20043945 C-113.95477295 3.73468506 -113.16320801 3.26893066 -112.34765625 2.7890625 C-111.63738281 2.36641113 -110.92710937 1.94375977 -110.1953125 1.50830078 C-108.28515625 0.59375 -108.28515625 0.59375 -105.28515625 0.59375 C-105.28515625 -0.06625 -105.28515625 -0.72625 -105.28515625 -1.40625 C-104.35703125 -1.674375 -103.42890625 -1.9425 -102.47265625 -2.21875 C-99.38993868 -3.10334175 -99.38993868 -3.10334175 -98.015625 -4.734375 C-95.48563554 -7.1786989 -92.49084036 -8.70322941 -89.41015625 -10.34375 C-88.74902832 -10.69638916 -88.08790039 -11.04902832 -87.40673828 -11.41235352 C-81.27199207 -14.58380475 -74.99301138 -16.75264226 -68.28515625 -18.40625 C-67.52847656 -18.59960938 -66.77179688 -18.79296875 -65.9921875 -18.9921875 C-40.70995055 -22.85931177 -21.08403657 -12.4523169 0 0 Z " fill="#009694" transform="translate(396.28515625,332.40625)"/>
<path d="M0 0 C5.08367787 4.37432747 5.19832094 9.999673 5.89257812 16.31860352 C5.99694687 17.21689377 6.10131561 18.11518402 6.20884705 19.04069519 C6.55193783 22.00689584 6.88524947 24.97411341 7.21875 27.94140625 C7.4570259 30.01309604 7.69600968 32.08470453 7.93566895 34.15623474 C8.56555296 39.61388223 9.18757683 45.07239462 9.80743408 50.53118896 C10.79762683 59.24288154 11.79817643 67.95338224 12.80162048 76.66355705 C13.14912738 79.69183759 13.49236965 82.72057864 13.83508301 85.74940491 C14.88841156 94.98435934 15.98111952 104.17088783 17.6875 113.3125 C17.818647 112.51371933 17.94979401 111.71493866 18.08491516 110.89195251 C19.32592663 103.34324569 20.5755494 95.79603805 21.83472919 88.25034237 C22.4816959 84.37151345 23.1253865 80.49220125 23.76147461 76.61157227 C24.37611794 72.86254136 24.99951726 69.11506042 25.6288662 65.36847115 C25.86676894 63.94294969 26.10157831 62.51690822 26.33315468 61.09034538 C29.07603845 44.22241429 29.07603845 44.22241429 33.875 38.875 C37.51962521 36.85020822 40.60097178 36.45340032 44.6875 37.3125 C47.58845484 38.73598809 49.3294972 39.67464641 50.92938232 42.52516174 C53.37372626 49.98817749 55.35256584 57.5062439 57.140625 65.15234375 C57.44834575 66.44993998 57.75652117 67.74742846 58.06512451 69.04481506 C58.7044725 71.73895788 59.33933301 74.43410367 59.97070312 77.13012695 C60.77899597 80.5805924 61.59724848 84.02860355 62.41862869 87.47597408 C63.20563355 90.78366541 63.98542508 94.09304051 64.765625 97.40234375 C65.05930969 98.63774399 65.35299438 99.87314423 65.65557861 101.14598083 C65.92295837 102.29139847 66.19033813 103.4368161 66.46582031 104.61694336 C66.70246399 105.62301132 66.93910767 106.62907928 67.18292236 107.66563416 C67.6875 110.3125 67.6875 110.3125 67.6875 114.3125 C68.3475 114.3125 69.0075 114.3125 69.6875 114.3125 C69.91953125 113.54035156 70.1515625 112.76820313 70.390625 111.97265625 C72.12094861 107.08918268 74.24904213 102.44280921 76.4375 97.75 C76.85515625 96.81736328 77.2728125 95.88472656 77.703125 94.92382812 C78.1259375 94.01955078 78.54875 93.11527344 78.984375 92.18359375 C79.35916992 91.36818115 79.73396484 90.55276855 80.12011719 89.71264648 C82.2098868 86.5125647 84.33253551 84.1341718 87.6875 82.3125 C91.44370224 81.584168 95.13704149 81.63917198 98.95361328 81.68139648 C100.07947845 81.67424118 101.20534363 81.66708588 102.36532593 81.65971375 C106.0799031 81.64283017 109.79327312 81.66222675 113.5078125 81.68359375 C116.09040426 81.68276515 118.67299596 81.6803061 121.25558472 81.67628479 C126.6642179 81.67342714 132.07240511 81.68759703 137.48095703 81.71557617 C143.73074136 81.74765814 149.97990192 81.74759808 156.22973073 81.7303614 C162.2494168 81.71449241 168.26881279 81.72132781 174.28850937 81.73829842 C176.8474158 81.74348727 179.4063402 81.74298995 181.96524429 81.73675346 C185.53728395 81.7313149 189.10825754 81.75163364 192.68017578 81.77905273 C193.74105408 81.77252686 194.80193237 81.76600098 195.8949585 81.75927734 C203.04804466 81.85283473 203.04804466 81.85283473 206.34225464 84.22084045 C207.79173136 86.47456451 208.22905381 87.65305606 208.1875 90.3125 C208.20296875 91.3025 208.20296875 91.3025 208.21875 92.3125 C207.6875 94.3125 207.6875 94.3125 203.6875 98.3125 C199.7275 98.3125 195.7675 98.3125 191.6875 98.3125 C191.6875 115.8025 191.6875 133.2925 191.6875 151.3125 C195.6475 151.3125 199.6075 151.3125 203.6875 151.3125 C207.6875 155.3125 207.6875 155.3125 208.21875 157.3125 C208.2084375 157.9725 208.198125 158.6325 208.1875 159.3125 C208.20296875 160.3025 208.20296875 160.3025 208.21875 161.3125 C207.40507247 164.3757566 206.23291824 165.40245882 203.6875 167.3125 C200.61770039 167.91572294 197.58919398 167.87300553 194.46875 167.84375 C193.57385864 167.8475769 192.67896729 167.85140381 191.75695801 167.85534668 C189.86742018 167.8580652 187.97784468 167.85070816 186.08837891 167.83398438 C183.1973881 167.81257323 180.30888233 167.83378734 177.41796875 167.859375 C175.58072369 167.85673171 173.74348017 167.85160671 171.90625 167.84375 C170.61080261 167.85589539 170.61080261 167.85589539 169.28918457 167.86828613 C163.30363957 167.77484129 163.30363957 167.77484129 160.14453125 165.40429688 C158.56791016 163.14081003 158.14483901 162.04280308 158.1875 159.3125 C158.17203125 158.3225 158.17203125 158.3225 158.15625 157.3125 C158.6875 155.3125 158.6875 155.3125 162.6875 151.3125 C166.6475 151.3125 170.6075 151.3125 174.6875 151.3125 C174.6875 133.8225 174.6875 116.3325 174.6875 98.3125 C160.1675 98.6425 145.6475 98.9725 130.6875 99.3125 C138.48058962 117.03413986 138.48058962 117.03413986 146.5625 134.625 C148.78300009 139.36061198 150.99595901 144.09756296 153.125 148.875 C153.61871094 149.96941406 154.11242187 151.06382812 154.62109375 152.19140625 C155.75044023 155.49670968 156.05299094 157.8476459 155.6875 161.3125 C153.22709272 164.64128632 151.79139613 166.10551948 147.6875 166.875 C143.79693431 166.14551893 142.51469343 165.12278944 139.6875 162.3125 C137.81623405 159.04897989 136.34531692 155.6467814 134.875 152.1875 C134.46830078 151.26839844 134.06160156 150.34929687 133.64257812 149.40234375 C130.6875 142.63794643 130.6875 142.63794643 130.6875 140.3125 C117.3225 140.8075 117.3225 140.8075 103.6875 141.3125 C100.56438213 148.41224663 100.56438213 148.41224663 97.46582031 155.52270508 C96.87172363 156.85144653 96.87172363 156.85144653 96.265625 158.20703125 C95.86762695 159.11300049 95.46962891 160.01896973 95.05957031 160.95239258 C93.54492035 163.55775223 92.27518346 164.7929882 89.6875 166.3125 C85.76153706 166.80324537 83.6186131 166.94957739 80.3125 164.6875 C78.27704234 161.71260034 77.91242239 159.9197159 77.6875 156.3125 C78.58377872 153.58836863 79.52612097 151.19873887 80.73828125 148.625 C81.06821579 147.89295349 81.39815033 147.16090698 81.73808289 146.40667725 C82.81105191 144.03512637 83.90517524 141.6740296 85 139.3125 C85.7390238 137.68976155 86.47664991 136.06638585 87.21289062 134.44238281 C89.0249191 130.45331293 90.85324771 126.47196891 92.68609619 122.49243164 C94.12990626 119.34943656 95.55589071 116.19863606 96.98046875 113.046875 C99.20337016 108.12948936 101.43977707 103.21858755 103.6875 98.3125 C100.60613699 98.30031588 98.54122207 98.31122639 95.6875 99.3125 C93.45200487 101.7360184 92.2766714 104.54758766 90.9609375 107.546875 C90.36667465 108.79213959 90.36667465 108.79213959 89.76040649 110.06256104 C88.49847198 112.71656813 87.27840264 115.38712911 86.0625 118.0625 C84.83423113 120.72053554 83.59728076 123.37364734 82.34317017 126.01959229 C81.56543933 127.66476844 80.80314085 129.31735822 80.05892944 130.97796631 C77.66897065 136.08820839 75.34161792 139.07711686 70.6875 142.3125 C67.24424787 143.18862999 63.90858206 142.78375833 60.57415771 141.49688721 C55.10649952 138.06445515 53.80066659 129.5945703 52.40472412 123.73297119 C52.16288391 122.67124695 51.9210437 121.60952271 51.671875 120.515625 C51.28083588 118.84883698 51.28083588 118.84883698 50.88189697 117.14837646 C50.33611106 114.81307605 49.79515454 112.47664221 49.25878906 110.13916016 C48.43635489 106.5575131 47.59835082 102.97978077 46.7578125 99.40234375 C46.22825416 97.12781643 45.69957735 94.85308364 45.171875 92.578125 C44.7969693 90.97339325 44.7969693 90.97339325 44.41448975 89.33624268 C44.07348236 87.84384064 44.07348236 87.84384064 43.72558594 86.32128906 C43.52447205 85.44829163 43.32335815 84.57529419 43.1161499 83.67584229 C42.6875 81.3125 42.6875 81.3125 42.6875 77.3125 C42.0275 77.3125 41.3675 77.3125 40.6875 77.3125 C40.6452681 77.9899527 40.60303619 78.6674054 40.55952454 79.36538696 C39.92468908 88.19569296 38.58034534 96.86570903 37.10546875 105.5859375 C36.84741933 107.1238271 36.58938848 108.66171982 36.33137512 110.19961548 C35.79304989 113.39887906 35.25018352 116.59733699 34.70483398 119.79541016 C34.00903452 123.88171193 33.33147854 127.97082169 32.65803051 132.06085777 C32.13327304 135.2281875 31.59554098 138.39321554 31.05425453 141.55775833 C30.79872964 143.06475527 30.54796785 144.57256834 30.30220604 146.0811882 C29.95757675 148.18871466 29.59467386 150.29233275 29.22729492 152.39599609 C29.02601486 153.59002045 28.8247348 154.7840448 28.61735535 156.01425171 C27.39980399 160.33297366 25.4978494 163.93913149 21.875 166.6875 C17.13988175 168.04039093 13.77056344 167.8642493 9.375 165.625 C4.2491834 161.21441362 4.16403933 155.50226578 3.46655273 149.13183594 C3.3605777 148.21587646 3.25460266 147.29991699 3.14541626 146.35620117 C2.79759407 143.33711906 2.45948146 140.31702775 2.12109375 137.296875 C1.88045987 135.19882917 1.63908096 133.10086868 1.39698792 131.00299072 C0.76188154 125.48686482 0.13440774 119.96990115 -0.49072266 114.45263672 C-1.49341015 105.60681805 -2.50375312 96.76189169 -3.52149773 87.91779327 C-3.87602102 84.82206904 -4.22490179 81.72574331 -4.57337952 78.6293335 C-4.78901462 76.7447257 -5.00485893 74.86014182 -5.22094727 72.97558594 C-5.31706802 72.10806702 -5.41318878 71.2405481 -5.51222229 70.34674072 C-5.6306621 66.51122212 -5.6306621 66.51122212 -7.3125 63.3125 C-7.4025018 64.07797622 -7.4925036 64.84345243 -7.58523273 65.6321249 C-9.78907725 84.37591145 -11.99325461 103.11965882 -14.19778919 121.86336422 C-15.2639363 130.92817784 -16.32997632 139.99300403 -17.39575195 149.05786133 C-18.32615875 156.97134895 -19.256779 164.88481144 -20.18764132 172.79824549 C-20.67917236 176.97690345 -21.17060622 181.15557279 -21.66178322 185.33427238 C-21.80282224 186.53398531 -21.80282224 186.53398531 -21.94671053 187.75793487 C-22.13325745 189.34491095 -22.3197462 190.93189387 -22.50617462 192.51888388 C-22.95084227 196.30230988 -23.39705744 200.08553971 -23.84696674 203.86834621 C-24.63809168 210.52712562 -25.41380742 217.18615704 -26.13656616 223.85281372 C-26.2649396 225.00512513 -26.39331305 226.15743654 -26.52557659 227.34466648 C-26.75854691 229.44157154 -26.98336699 231.53940802 -27.19772816 233.63829708 C-27.81019294 239.06434589 -28.736793 243.46863877 -31.3125 248.3125 C-34.2644672 250.22728954 -35.92841724 250.32786331 -39.4375 250.1875 C-42.84732761 249.14972638 -43.51602963 248.31789654 -45.3125 245.3125 C-45.64055848 243.08087134 -45.64055848 243.08087134 -45.56238174 240.6784935 C-45.53477154 239.79632392 -45.50716134 238.91415435 -45.47871447 238.00525236 C-45.21933599 233.80319938 -44.81302716 229.63665078 -44.31439209 225.456604 C-44.20695844 224.51715966 -44.09952479 223.57771532 -43.98883557 222.60980296 C-43.63052803 219.48953386 -43.26404151 216.37028369 -42.89746094 213.25097656 C-42.63749653 211.00315947 -42.37799218 208.75528914 -42.11891174 206.50737 C-41.41583213 200.42235306 -40.70513413 194.33825035 -39.99214077 188.25438786 C-39.5467759 184.452279 -39.10283245 180.65000681 -38.6593399 176.84767914 C-37.4297026 166.30745232 -36.19820473 155.76744851 -34.95866013 145.22838211 C-34.83998124 144.21929852 -34.83998124 144.21929852 -34.71890481 143.18982939 C-34.55853276 141.82629408 -34.3981605 140.46275879 -34.23778805 139.09922352 C-34.15819006 138.42243191 -34.07859208 137.7456403 -33.99658203 137.04833984 C-33.91688467 136.37071794 -33.83718732 135.69309603 -33.75507489 134.99494013 C-32.46211373 123.99821947 -31.18403822 112.99982401 -29.91236517 102.00062326 C-28.60470087 90.6919276 -27.28458698 79.38475333 -25.95274377 68.07887435 C-25.2059475 61.73715331 -24.46440552 55.3949227 -23.73571014 49.05109406 C-23.05065243 43.09036938 -22.35018097 37.13165823 -21.6377697 31.17414284 C-21.37897473 28.98746782 -21.12573681 26.80012691 -20.87845802 24.61211967 C-20.5401396 21.62623214 -20.18189308 18.64339092 -19.81854248 15.66046143 C-19.72513824 14.79373251 -19.631734 13.9270036 -19.53549933 13.03401017 C-18.86343341 7.74081986 -17.680015 4.48478205 -14.3125 0.3125 C-9.8643659 -3.06194656 -4.75365847 -2.42167507 0 0 Z M116.6875 111.3125 C115.84930842 112.93499941 115.0170884 114.56058497 114.1875 116.1875 C113.7234375 117.09242188 113.259375 117.99734375 112.78125 118.9296875 C111.54844411 121.17846859 111.54844411 121.17846859 111.6875 123.3125 C115.3175 123.3125 118.9475 123.3125 122.6875 123.3125 C121.0375 119.3525 119.3875 115.3925 117.6875 111.3125 C117.3575 111.3125 117.0275 111.3125 116.6875 111.3125 Z " fill="#00DEA6" transform="translate(215.3125,132.6875)"/>
<path d="M0 0 C0.87183426 -0.00671722 1.74366852 -0.01343445 2.641922 -0.02035522 C5.52834751 -0.0393772 8.41454107 -0.04326141 11.30102539 -0.04541016 C13.3049784 -0.05183472 15.30893046 -0.05856282 17.31288147 -0.06558228 C21.5152504 -0.07756523 25.71753706 -0.08126201 29.91992188 -0.08007812 C35.30831972 -0.07987478 40.69619108 -0.1071888 46.08446407 -0.14162254 C50.22370331 -0.16384402 54.36281483 -0.16791714 58.50210762 -0.16685867 C60.48886494 -0.16922135 62.47562543 -0.17808219 64.46232414 -0.19352341 C67.23958251 -0.21308911 70.01569244 -0.20738281 72.79296875 -0.1953125 C73.61544098 -0.20655151 74.43791321 -0.21779053 75.28530884 -0.22937012 C78.93057338 -0.1890503 81.02272744 -0.04249847 83.96974182 2.19589233 C85.58436403 4.46352939 86.00419424 5.53772117 85.96118164 8.29052734 C85.97665039 9.28052734 85.97665039 9.28052734 85.99243164 10.29052734 C85.46118164 12.29052734 85.46118164 12.29052734 81.46118164 16.29052734 C77.50118164 16.29052734 73.54118164 16.29052734 69.46118164 16.29052734 C69.46118164 33.78052734 69.46118164 51.27052734 69.46118164 69.29052734 C73.42118164 69.29052734 77.38118164 69.29052734 81.46118164 69.29052734 C85.46118164 73.29052734 85.46118164 73.29052734 85.99243164 75.29052734 C85.98211914 75.95052734 85.97180664 76.61052734 85.96118164 77.29052734 C85.97665039 78.28052734 85.97665039 78.28052734 85.99243164 79.29052734 C85.17875411 82.35378394 84.00659988 83.38048616 81.46118164 85.29052734 C78.39138203 85.89375029 75.36287562 85.85103287 72.24243164 85.82177734 C71.34754028 85.82560425 70.45264893 85.82943115 69.53063965 85.83337402 C67.64110182 85.83609255 65.75152632 85.8287355 63.86206055 85.81201172 C60.97106974 85.79060058 58.08256397 85.81181468 55.19165039 85.83740234 C53.35440533 85.83475906 51.51716181 85.82963406 49.67993164 85.82177734 C48.81630005 85.82987427 47.95266846 85.83797119 47.06286621 85.84631348 C41.07732121 85.75286864 41.07732121 85.75286864 37.91821289 83.38232422 C36.3415918 81.11883737 35.91852066 80.02083042 35.96118164 77.29052734 C35.94571289 76.30052734 35.94571289 76.30052734 35.92993164 75.29052734 C36.46118164 73.29052734 36.46118164 73.29052734 40.46118164 69.29052734 C44.42118164 69.29052734 48.38118164 69.29052734 52.46118164 69.29052734 C52.46118164 51.80052734 52.46118164 34.31052734 52.46118164 16.29052734 C37.94118164 16.62052734 23.42118164 16.95052734 8.46118164 17.29052734 C16.25427126 35.01216721 16.25427126 35.01216721 24.33618164 52.60302734 C26.55668173 57.33863933 28.76964065 62.07559031 30.89868164 66.85302734 C31.39239258 67.94744141 31.88610352 69.04185547 32.39477539 70.16943359 C33.52412187 73.47473703 33.82667258 75.82567325 33.46118164 79.29052734 C31.00077436 82.61931366 29.56507777 84.08354682 25.46118164 84.85302734 C21.57061595 84.12354628 20.28837507 83.10081678 17.46118164 80.29052734 C15.58991569 77.02700723 14.11899856 73.62480874 12.64868164 70.16552734 C12.03863281 68.786875 12.03863281 68.786875 11.41625977 67.38037109 C8.46118164 60.61597377 8.46118164 60.61597377 8.46118164 58.29052734 C-4.90381836 58.78552734 -4.90381836 58.78552734 -18.53881836 59.29052734 C-21.66193623 66.39027397 -21.66193623 66.39027397 -24.76049805 73.50073242 C-25.1565625 74.38656006 -25.55262695 75.2723877 -25.96069336 76.18505859 C-26.35869141 77.09102783 -26.75668945 77.99699707 -27.16674805 78.93041992 C-28.68139801 81.53577957 -29.9511349 82.77101554 -32.53881836 84.29052734 C-36.4647813 84.78127271 -38.60770526 84.92760473 -41.91381836 82.66552734 C-43.94927602 79.69062768 -44.31389597 77.89774324 -44.53881836 74.29052734 C-43.64254643 71.56641663 -42.70018337 69.17675273 -41.48803711 66.60302734 C-41.1584198 65.8716153 -40.82880249 65.14020325 -40.48919678 64.3866272 C-39.41599189 62.01439344 -38.32155829 59.65265753 -37.22631836 57.29052734 C-36.48219854 55.65752128 -35.73944681 54.02389114 -34.99804688 52.38964844 C-33.5294905 49.15849851 -32.05276692 45.93130493 -30.56811523 42.70751953 C-28.85538258 38.98651529 -27.16652619 35.25545166 -25.49194336 31.51708984 C-21.9629586 23.64463751 -18.38027365 15.79663841 -14.60131836 8.04052734 C-14.07666992 6.96287109 -13.55202148 5.88521484 -13.01147461 4.77490234 C-9.8360886 -0.58198228 -5.58371073 -0.00613819 0 0 Z M-5.53881836 29.29052734 C-6.37700994 30.91302675 -7.20922996 32.53861231 -8.03881836 34.16552734 C-8.50288086 35.07044922 -8.96694336 35.97537109 -9.44506836 36.90771484 C-10.67787425 39.15649594 -10.67787425 39.15649594 -10.53881836 41.29052734 C-6.90881836 41.29052734 -3.27881836 41.29052734 0.46118164 41.29052734 C-1.18881836 37.33052734 -2.83881836 33.37052734 -4.53881836 29.29052734 C-4.86881836 29.29052734 -5.19881836 29.29052734 -5.53881836 29.29052734 Z " fill="#E671AA" transform="translate(337.538818359375,214.70947265625)"/>
<path d="M0 0 C1.30692055 -0.00361794 1.30692055 -0.00361794 2.64024353 -0.00730896 C4.47676153 -0.00633201 6.31330953 0.00702547 8.1496582 0.03198242 C10.95951293 0.06634107 13.76622982 0.05262272 16.57617188 0.03320312 C18.36329462 0.04010058 20.15040927 0.04977207 21.9375 0.0625 C22.77612076 0.05754013 23.61474152 0.05258026 24.47877502 0.04747009 C30.28836861 0.16476216 30.28836861 0.16476216 33.42944336 2.53930664 C35.02491179 4.80279318 35.44515557 5.88895007 35.40234375 8.62890625 C35.41265625 9.28890625 35.42296875 9.94890625 35.43359375 10.62890625 C34.90234375 12.62890625 34.90234375 12.62890625 30.90234375 16.62890625 C26.94234375 16.62890625 22.98234375 16.62890625 18.90234375 16.62890625 C18.90234375 34.11890625 18.90234375 51.60890625 18.90234375 69.62890625 C22.86234375 69.62890625 26.82234375 69.62890625 30.90234375 69.62890625 C34.90234375 73.62890625 34.90234375 73.62890625 35.43359375 75.62890625 C35.42328125 76.28890625 35.41296875 76.94890625 35.40234375 77.62890625 C35.41265625 78.28890625 35.42296875 78.94890625 35.43359375 79.62890625 C34.61991622 82.69216285 33.44776199 83.71886507 30.90234375 85.62890625 C27.83254414 86.23212919 24.80403773 86.18941178 21.68359375 86.16015625 C20.34125671 86.16589661 20.34125671 86.16589661 18.97180176 86.17175293 C17.08226393 86.17447145 15.19268843 86.16711441 13.30322266 86.15039062 C10.41223185 86.12897948 7.52372608 86.15019359 4.6328125 86.17578125 C2.79556744 86.17313796 0.95832392 86.16801296 -0.87890625 86.16015625 C-1.74253784 86.16825317 -2.60616943 86.1763501 -3.49597168 86.18469238 C-9.48151668 86.09124754 -9.48151668 86.09124754 -12.640625 83.72070312 C-14.21724609 81.45721628 -14.64031724 80.35920933 -14.59765625 77.62890625 C-14.613125 76.63890625 -14.613125 76.63890625 -14.62890625 75.62890625 C-14.09765625 73.62890625 -14.09765625 73.62890625 -10.09765625 69.62890625 C-6.13765625 69.62890625 -2.17765625 69.62890625 1.90234375 69.62890625 C1.90234375 52.13890625 1.90234375 34.64890625 1.90234375 16.62890625 C-1.72765625 16.62890625 -5.35765625 16.62890625 -9.09765625 16.62890625 C-12.73162872 14.20625794 -13.83559789 12.8867864 -14.72265625 8.62890625 C-13.02450579 0.47778406 -7.06394705 -0.11194798 0 0 Z " fill="#FDAF6F" transform="translate(388.09765625,214.37109375)"/>
<path d="M0 0 C1.30692055 -0.00361794 1.30692055 -0.00361794 2.64024353 -0.00730896 C4.47676153 -0.00633201 6.31330953 0.00702547 8.1496582 0.03198242 C10.95951293 0.06634107 13.76622982 0.05262272 16.57617188 0.03320312 C18.36329462 0.04010058 20.15040927 0.04977207 21.9375 0.0625 C22.77612076 0.05754013 23.61474152 0.05258026 24.47877502 0.04747009 C30.28836861 0.16476216 30.28836861 0.16476216 33.42944336 2.53930664 C35.02491179 4.80279318 35.44515557 5.88895007 35.40234375 8.62890625 C35.41265625 9.28890625 35.42296875 9.94890625 35.43359375 10.62890625 C34.60537758 13.74689653 33.56329987 14.7714862 30.90234375 16.62890625 C27.68074702 17.26787538 24.49226739 17.3260833 21.21484375 17.37890625 C19.92416992 17.42337891 19.92416992 17.42337891 18.60742188 17.46875 C-6.70643261 18.26994208 -6.70643261 18.26994208 -12.28515625 14.44140625 C-14.46802846 11.05419075 -14.92015911 9.57692 -14.09765625 5.62890625 C-9.95419353 0.06031002 -6.46456182 -0.10244904 0 0 Z " fill="#FEB56A" transform="translate(388.09765625,214.37109375)"/>
<path d="M0 0 C14.19 0 28.38 0 43 0 C41.68 1.65 40.36 3.3 39 5 C38.33333333 8 38.33333333 8 39 11 C40.32 12.65 41.64 14.3 43 16 C31.45 16 19.9 16 8 16 C6.02 11.71 4.04 7.42 2 3 C1.34 2.01 0.68 1.02 0 0 Z " fill="#00DEA6" transform="translate(336,215)"/>
<path d="M0 0 C0.66 0 1.32 0 2 0 C3.68482583 3.70034355 5.34455351 7.41143085 7 11.125 C7.47695313 12.17171875 7.95390625 13.2184375 8.4453125 14.296875 C8.89648438 15.31523437 9.34765625 16.33359375 9.8125 17.3828125 C10.23144531 18.31496582 10.65039062 19.24711914 11.08203125 20.20751953 C12.11437846 23.3479417 12.31307753 25.71438743 12 29 C9.53959272 32.32878632 8.10389613 33.79301948 4 34.5625 C0.11199325 33.83349873 -1.17303149 32.80584019 -4 30 C-5.87273969 26.75815461 -7.34310734 23.37749247 -8.8125 19.9375 C-9.21919922 19.02677734 -9.62589844 18.11605469 -10.04492188 17.17773438 C-13 10.43816964 -13 10.43816964 -13 7 C-12.09507812 6.99613281 -12.09507812 6.99613281 -11.171875 6.9921875 C-8.65556416 6.87043052 -6.43276957 6.66806625 -4 6 C-1.52351923 3.07956297 -1.52351923 3.07956297 0 0 Z " fill="#FFAA74" transform="translate(359,265)"/>
<path d="M0 0 C0.93585938 0.01804687 1.87171875 0.03609375 2.8359375 0.0546875 C5.14106438 0.10173091 7.44566354 0.17347222 9.75 0.25 C9.75 5.53 9.75 10.81 9.75 16.25 C6.4991122 16.35796306 3.25180821 16.43729295 0 16.5 C-1.38058594 16.55027344 -1.38058594 16.55027344 -2.7890625 16.6015625 C-9.58487804 16.70005258 -9.58487804 16.70005258 -12.859375 14.484375 C-14.30976504 12.15397303 -14.79245545 10.96714866 -14.75 8.25 C-14.76546875 7.26 -14.76546875 7.26 -14.78125 6.25 C-12.79561035 -1.22534927 -6.33017047 -0.23051041 0 0 Z " fill="#8E2EF0" transform="translate(388.25,283.75)"/>
<path d="M0 0 C8.17817372 -0.48106904 8.17817372 -0.48106904 11.5625 1.5 C13.60632244 5.05447381 13.77074046 7.99870909 13 12 C11.625 14.5 11.625 14.5 9 16 C5.59261423 16.3204438 2.43812659 16.18095403 -1 16 C-0.67 10.72 -0.34 5.44 0 0 Z " fill="#F8CE53" transform="translate(410,284)"/>
<path d="M0 0 C0.66 0.33 1.32 0.66 2 1 C1.32324219 1.67417969 0.64648438 2.34835938 -0.05078125 3.04296875 C-2.20804483 5.19871152 -4.34682064 7.37167438 -6.48046875 9.55078125 C-7.71606836 10.80476385 -8.95174673 12.05866883 -10.1875 13.3125 C-11.13012695 14.28026367 -11.13012695 14.28026367 -12.09179688 15.26757812 C-12.69443359 15.87666016 -13.29707031 16.48574219 -13.91796875 17.11328125 C-14.46219482 17.66798096 -15.0064209 18.22268066 -15.56713867 18.79418945 C-17 20 -17 20 -19 20 C-19.24105469 20.50402344 -19.48210937 21.00804688 -19.73046875 21.52734375 C-21.11684143 24.22757115 -22.61247092 26.84864514 -24.12231445 29.48120117 C-33.92541636 46.62406144 -40.64217982 63.72777898 -41.65625 83.62890625 C-41.7696875 84.41136719 -41.883125 85.19382812 -42 86 C-42.99 86.495 -42.99 86.495 -44 87 C-45.98674695 61.94491351 -33.22081722 35.93055045 -18 17 C-17.42507812 16.27039063 -16.85015625 15.54078125 -16.2578125 14.7890625 C-11.52273822 9.05713047 -5.84127321 4.56316461 0 0 Z " fill="#198D8A" transform="translate(202,25)"/>
<path d="M0 0 C2.2477975 2.05233685 3.0022242 3.00667261 4 6 C3.34 6 2.68 6 2 6 C7.9671431 39.94251399 21.33941978 67.26530863 50 88 C49.67 88.66 49.34 89.32 49 90 C22.41004714 70.41728178 5.62218235 44.11539789 0.26953125 11.44921875 C-0.15346333 7.60548535 -0.12666285 3.86321697 0 0 Z " fill="#158A8A" transform="translate(158,389)"/>
<path d="M0 0 C2.31 0 4.62 0 7 0 C7 5.28 7 10.56 7 16 C4.69 16 2.38 16 0 16 C0 10.72 0 5.44 0 0 Z " fill="#C27DA3" transform="translate(398,284)"/>
<path d="M0 0 C0.33 0.66 0.66 1.32 1 2 C1.7115625 2.13277344 2.423125 2.26554687 3.15625 2.40234375 C6.75709767 3.15911531 9.32696053 4.70306976 12.5 6.5625 C13.40987671 7.09278809 13.40987671 7.09278809 14.33813477 7.63378906 C19.65459397 10.74969287 24.89806869 13.98345831 30.1328125 17.234375 C33.38195681 19.23521046 36.66845815 21.14053478 40 23 C40 23.33 40 23.66 40 24 C36.00169344 24.29205022 34.1264102 23.7712909 30.9375 21.375 C26.43985589 18.18822704 21.75961059 15.77743207 16.796875 13.39453125 C14.09183908 12.04579127 11.50404141 10.69525431 9 9 C9 8.34 9 7.68 9 7 C8.278125 6.9175 7.55625 6.835 6.8125 6.75 C3.44686746 5.85249799 1.58387184 4.2885722 -1 2 C-0.67 1.34 -0.34 0.68 0 0 Z " fill="#09AD99" transform="translate(419,92)"/>
<path d="M0 0 C0 5.28 0 10.56 0 16 C-5 15 -5 15 -6.8125 13.3125 C-8.40188959 10.21737291 -8.56159999 8.43979993 -8 5 C-3.97826087 0 -3.97826087 0 0 0 Z " fill="#C68D96" transform="translate(382,215)"/>
<path d="M0 0 C1.03488808 -0.00287018 1.03488808 -0.00287018 2.09068298 -0.00579834 C3.54035815 -0.00715179 4.99004579 -0.00351441 6.43969727 0.00488281 C8.64952945 0.01561134 10.85855188 0.00495102 13.06835938 -0.0078125 C14.4830747 -0.00649108 15.89778952 -0.00392903 17.3125 0 C18.58875244 0.00225586 19.86500488 0.00451172 21.17993164 0.00683594 C24.43263481 0.25369391 26.6711032 0.86217664 29.58984375 2.265625 C27.22165801 3.7616118 25.99523717 4.31212408 23.171875 3.98828125 C21.80095703 3.66150391 21.80095703 3.66150391 20.40234375 3.328125 C9.5131135 1.27807432 -1.78331596 2.23929432 -12.30859375 5.64453125 C-14.41015625 6.265625 -14.41015625 6.265625 -17.41015625 6.265625 C-12.50263951 0.60310569 -7.24631243 0.01279702 0 0 Z " fill="#0C938B" transform="translate(241.41015625,6.734375)"/>
<path d="M0 0 C5.06316993 2.0447417 9.6150976 4.43828822 14.25 7.3125 C24.4846643 13.62834078 24.4846643 13.62834078 35.23828125 18.97265625 C37 20 37 20 38 23 C32.9424153 22.52585143 28.98999203 19.99249402 25 17 C24.67 16.34 24.34 15.68 24 15 C22.00059764 14.33154309 20.00046152 13.66528051 18 13 C15.58337386 11.7082622 13.22781792 10.39651128 10.875 9 C5.52126502 5.84607185 5.52126502 5.84607185 0 3 C0 2.01 0 1.02 0 0 Z " fill="#0AA89A" transform="translate(369,64)"/>
<path d="M0 0 C1.65 0 3.3 0 5 0 C5 5.28 5 10.56 5 16 C3.35 16 1.7 16 0 16 C0 10.72 0 5.44 0 0 Z " fill="#AD5FC1" transform="translate(393,284)"/>
<path d="M0 0 C1.65 0 3.3 0 5 0 C5 5.28 5 10.56 5 16 C3.35 16 1.7 16 0 16 C0 10.72 0 5.44 0 0 Z " fill="#DBA37E" transform="translate(382,215)"/>
<path d="M0 0 C1.65 0 3.3 0 5 0 C5.02692484 2.29160319 5.04636124 4.58329546 5.0625 6.875 C5.07410156 8.15117187 5.08570313 9.42734375 5.09765625 10.7421875 C5 14 5 14 4 16 C2.68 16 1.36 16 0 16 C0 10.72 0 5.44 0 0 Z " fill="#E3B071" transform="translate(405,284)"/>
<path d="M0 0 C1.98 0 3.96 0 6 0 C5.34 5.61 4.68 11.22 4 17 C2.68 16.67 1.36 16.34 0 16 C0 10.72 0 5.44 0 0 Z " fill="#EDBF63" transform="translate(387,215)"/>
<path d="M0 0 C2.29416573 1.12012792 4.58529094 2.24582841 6.875 3.375 C7.52597656 3.69210938 8.17695313 4.00921875 8.84765625 4.3359375 C11.58177041 5.68890121 13.82772518 6.82772518 16 9 C16.99 9.33 17.98 9.66 19 10 C19 10.66 19 11.32 19 12 C19.78375 12.144375 20.5675 12.28875 21.375 12.4375 C24 13 24 13 26 14 C26 14.66 26 15.32 26 16 C27.65 16.33 29.3 16.66 31 17 C31 17.66 31 18.32 31 19 C25.95708458 18.42423407 22.0838724 16.08813611 17.75 13.625 C17.0178125 13.22539063 16.285625 12.82578125 15.53125 12.4140625 C14.83515625 12.0221875 14.1390625 11.6303125 13.421875 11.2265625 C12.78862305 10.87158691 12.15537109 10.51661133 11.50292969 10.15087891 C10 9 10 9 9 6 C6.03 5.505 6.03 5.505 3 5 C2.67 4.01 2.34 3.02 2 2 C1.34 2 0.68 2 0 2 C0 1.34 0 0.68 0 0 Z " fill="#0AA394" transform="translate(307,28)"/>
<path d="M0 0 C0 5.28 0 10.56 0 16 C-4 14 -4 14 -5 12 C-5.58435438 4.75400566 -5.58435438 4.75400566 -3.0625 1.5 C-1 0 -1 0 0 0 Z " fill="#E356C3" transform="translate(379,284)"/>
<path d="M0 0 C1.32 0 2.64 0 4 0 C4 5.28 4 10.56 4 16 C2.68 16 1.36 16 0 16 C0 10.72 0 5.44 0 0 Z " fill="#BF43D7" transform="translate(379,284)"/>
<path d="M0 0 C4 2 4 2 5 4 C5.58252427 11.22330097 5.58252427 11.22330097 3.125 14.5 C1 16 1 16 -1 16 C-0.67 10.72 -0.34 5.44 0 0 Z " fill="#E8B76A" transform="translate(418,284)"/>
<path d="M0 0 C0.99 0 1.98 0 3 0 C3 5.28 3 10.56 3 16 C1.68 15.67 0.36 15.34 -1 15 C-0.67 10.05 -0.34 5.1 0 0 Z " fill="#9B43DB" transform="translate(390,284)"/>
<path d="M0 0 C0.99 0 1.98 0 3 0 C3 5.28 3 10.56 3 16 C2.01 16 1.02 16 0 16 C0 10.72 0 5.44 0 0 Z " fill="#D2958B" transform="translate(402,284)"/>
<path d="M0 0 C0.99 0 1.98 0 3 0 C3 5.28 3 10.56 3 16 C2.01 16 1.02 16 0 16 C0 10.72 0 5.44 0 0 Z " fill="#A134E8" transform="translate(383,284)"/>
<path d="M0 0 C2.5542655 -0.38700992 4.36424065 -0.3842332 6.609375 0.97265625 C7.77691606 1.84831204 8.93675151 2.73430942 10.08984375 3.62890625 C12.69621814 5.4997394 15.48433378 6.78343328 18.3984375 8.10546875 C20 9 20 9 21 11 C19.37433394 10.52309796 17.74948689 10.04340334 16.125 9.5625 C15.22007812 9.29566406 14.31515625 9.02882813 13.3828125 8.75390625 C11 8 11 8 9 7 C9 6.34 9 5.68 9 5 C7.35 4.67 5.7 4.34 4 4 C3.67 3.01 3.34 2.02 3 1 C2.01 0.67 1.02 0.34 0 0 Z " fill="#09A38E" transform="translate(285,17)"/>
<path d="M0 0 C0.66 0 1.32 0 2 0 C1.67 4.62 1.34 9.24 1 14 C-3 10 -3 10 -3.4375 7 C-2.96255612 3.74324199 -2.31056137 2.31056137 0 0 Z " fill="#B282A5" transform="translate(377,216)"/>
<path d="M0 0 C0.66 0.33 1.32 0.66 2 1 C-4.93 6.94 -4.93 6.94 -12 13 C-12.66 12.34 -13.32 11.68 -14 11 C-12.49193111 6.74913081 -9.81856735 5.3675715 -6 3.1875 C-4.9275 2.56230469 -3.855 1.93710937 -2.75 1.29296875 C-1.38875 0.65294922 -1.38875 0.65294922 0 0 Z " fill="#2FF0B4" transform="translate(207,19)"/>
<path d="M0 0 C4.57906978 0 5.97928563 0.93101846 9.75 3.375 C10.73484375 4.00148438 11.7196875 4.62796875 12.734375 5.2734375 C13.48203125 5.84320313 14.2296875 6.41296875 15 7 C15 7.66 15 8.32 15 9 C15.66 9 16.32 9 17 9 C16.67 9.66 16.34 10.32 16 11 C12.37 9.02 8.74 7.04 5 5 C5 4.34 5 3.68 5 3 C3.35 2.67 1.7 2.34 0 2 C0 1.34 0 0.68 0 0 Z " fill="#09A898" transform="translate(204,477)"/>
<path d="M0 0 C4.69131592 0.50214965 7.5596434 1.68196468 11.375 4.4375 C12.68597656 5.36369141 12.68597656 5.36369141 14.0234375 6.30859375 C14.67570313 6.86675781 15.32796875 7.42492187 16 8 C16 8.66 16 9.32 16 10 C12.35524815 8.63649571 9.08755513 6.998536 5.75 5 C4.44289062 4.2265625 4.44289062 4.2265625 3.109375 3.4375 C1 2 1 2 0 0 Z " fill="#09968C" transform="translate(185,106)"/>
<path d="M0 0 C2.15241805 1.09267397 4.2963218 2.19819051 6.4375 3.3125 C7.04916016 3.62123047 7.66082031 3.92996094 8.29101562 4.24804688 C12.88671875 6.66015625 12.88671875 6.66015625 14 10 C9.06942166 9.53775828 4.7127367 7.21828345 1 4 C0.265625 1.83203125 0.265625 1.83203125 0 0 Z " fill="#08B588" transform="translate(393,77)"/>
<path d="M0 0 C0.66 0 1.32 0 2 0 C2.02692484 2.29160319 2.04636124 4.58329546 2.0625 6.875 C2.07410156 8.15117187 2.08570313 9.42734375 2.09765625 10.7421875 C2 14 2 14 1 16 C0.34 16 -0.32 16 -1 16 C-0.67 10.72 -0.34 5.44 0 0 Z " fill="#F1C45E" transform="translate(416,284)"/>
<path d="M0 0 C0.66 0 1.32 0 2 0 C3.10647808 2.21295616 3.19588368 3.54672699 3.25 6 C3.27578125 6.70125 3.3015625 7.4025 3.328125 8.125 C3.21984375 8.74375 3.1115625 9.3625 3 10 C2.01 10.66 1.02 11.32 0 12 C0 8.04 0 4.08 0 0 Z " fill="#DEA879" transform="translate(420,286)"/>
<path d="M0 0 C1.81612488 0.95144598 3.62781081 1.91136933 5.4375 2.875 C6.44683594 3.40867188 7.45617187 3.94234375 8.49609375 4.4921875 C11 6 11 6 12 8 C7.86894386 7.39249174 4.56700675 6.18884505 1 4 C0.328125 1.89453125 0.328125 1.89453125 0 0 Z " fill="#08B193" transform="translate(346,50)"/>
<path d="M0 0 C4.0185613 1.21491388 7.64212249 2.43221132 11 5 C11 6.32 11 7.64 11 9 C10.34 9 9.68 9 9 9 C9 8.34 9 7.68 9 7 C6.06279492 5.47700477 3.0831351 4.19899698 0 3 C0 2.01 0 1.02 0 0 Z " fill="#08AB93" transform="translate(459,116)"/>
<path d="M0 0 C4.62 2.31 9.24 4.62 14 7 C13.67 7.66 13.34 8.32 13 9 C11.34912153 8.40975852 9.70437593 7.80233994 8.0625 7.1875 C7.14597656 6.85105469 6.22945313 6.51460937 5.28515625 6.16796875 C3 5 3 5 2 2 C1.34 2 0.68 2 0 2 C0 1.34 0 0.68 0 0 Z " fill="#08B295" transform="translate(307,28)"/>
<path d="M0 0 C3.0831351 1.19899698 6.06279492 2.47700477 9 4 C9 4.99 9 5.98 9 7 C5.56072421 5.7580393 2.74792181 4.44259716 0 2 C0 1.34 0 0.68 0 0 Z " fill="#09A792" transform="translate(359,58)"/>
<path d="M0 0 C0.66 0 1.32 0 2 0 C2 2.64 2 5.28 2 8 C1.01 7.67 0.02 7.34 -1 7 C-1.04254356 5.00045254 -1.04080783 2.99958364 -1 1 C-0.67 0.67 -0.34 0.34 0 0 Z " fill="#B375AE" transform="translate(375,219)"/>
<path d="M0 0 C2.3431213 0.25561323 4.67843403 0.59270772 7 1 C7.33 1.66 7.66 2.32 8 3 C4.94736336 3.98120464 3.05263664 3.98120464 0 3 C0 2.01 0 1.02 0 0 Z " fill="#08A48E" transform="translate(263,7)"/>
<path d="M0 0 C3.375 -0.125 3.375 -0.125 7 0 C9 2 9 2 9 4 C7.6078125 3.505 7.6078125 3.505 6.1875 3 C3.07970709 1.85032996 3.07970709 1.85032996 0 2 C0 1.34 0 0.68 0 0 Z " fill="#0AA178" transform="translate(171,100)"/>
<path d="M0 0 C2.31 0.33 4.62 0.66 7 1 C7.33 1.99 7.66 2.98 8 4 C4.31245243 3.50168276 2.39509338 2.89932357 0 0 Z " fill="#09AC9A" transform="translate(399,83)"/>
</svg>
