<?xml version="1.0" encoding="UTF-8"?>
<svg version="1.1" xmlns="http://www.w3.org/2000/svg" width="32" height="32">
<path d="M0 0 C2.9921875 1.3125 2.9921875 1.3125 5.875 3 C6.84179688 3.556875 7.80859375 4.11375 8.8046875 4.6875 C9.52914063 5.120625 10.25359375 5.55375 11 6 C10 9 10 9 7.9375 10.1875 C7.298125 10.455625 6.65875 10.72375 6 11 C6.66 11.33 7.32 11.66 8 12 C7.90234375 14.01822917 7.8046875 16.03645833 7.70703125 18.0546875 C7.80371094 18.69664063 7.90039062 19.33859375 8 20 C8.99 20.66 9.98 21.32 11 22 C11 22.66 11 23.32 11 24 C6.35169493 27.67673311 1.12453992 31.06616424 -4.9765625 30.60546875 C-9.44898532 29.26719551 -13.70476904 26.29523096 -17 23 C-17.66652177 17.54835495 -17.86624618 12.43569479 -17 7 C-14.44367551 3.88705647 -11.71279203 2.45428858 -8 1 C-5.17013771 -0.41493114 -3.14670765 -0.2426377 0 0 Z M-8 7 C-8 9.31 -8 11.62 -8 14 C-7.67 14 -7.34 14 -7 14 C-6.67 11.69 -6.34 9.38 -6 7 C-6.66 7 -7.32 7 -8 7 Z M-1 11 C-0.67 11.66 -0.34 12.32 0 13 C0.33 12.34 0.66 11.68 1 11 C0.34 11 -0.32 11 -1 11 Z M-3 16 C-3 16.99 -3 17.98 -3 19 C-3.66 19 -4.32 19 -5 19 C-5.33 18.34 -5.66 17.68 -6 17 C-6 18.98 -6 20.96 -6 23 C-4.02 22.01 -2.04 21.02 0 20 C-0.66 18.68 -1.32 17.36 -2 16 C-2.33 16 -2.66 16 -3 16 Z M1 17 C1.33 17.66 1.66 18.32 2 19 C2.33 18.34 2.66 17.68 3 17 C2.34 17 1.68 17 1 17 Z " fill="#029896" transform="translate(19,1)"/>
<path d="M0 0 C0.66 0.33 1.32 0.66 2 1 C1.34 1.66 0.68 2.32 0 3 C0.3185177 5.10820797 0.3185177 5.10820797 1 7 C1.99 7 2.98 7 4 7 C4 7.66 4 8.32 4 9 C4.99 9 5.98 9 7 9 C7.66 9.66 8.32 10.32 9 11 C8.625 13.625 8.625 13.625 8 16 C7.34 16 6.68 16 6 16 C5.67 16.66 5.34 17.32 5 18 C4.34 18 3.68 18 3 18 C1.39644899 21.50776784 0.77963136 24.14354879 1 28 C-0.29409289 27.38003922 -1.58519673 26.75383647 -2.875 26.125 C-3.59429688 25.77695312 -4.31359375 25.42890625 -5.0546875 25.0703125 C-7 24 -7 24 -9 22 C-9.80079441 16.54726249 -9.93390663 11.43959654 -9 6 C-6.4222254 2.9367028 -3.71573042 1.41551635 0 0 Z " fill="#02DE9E" transform="translate(11,2)"/>
<path d="M0 0 C4.83834305 -0.657905 7.73442853 0.57625085 11.875 3 C12.84179688 3.556875 13.80859375 4.11375 14.8046875 4.6875 C15.52914063 5.120625 16.25359375 5.55375 17 6 C15.73958325 9.78125025 14.31129455 10.01322327 11 12 C10.67 12.99 10.34 13.98 10 15 C9.01 14.67 8.02 14.34 7 14 C7 13.01 7 12.02 7 11 C6.278125 10.71125 5.55625 10.4225 4.8125 10.125 C2.20833333 9.08333333 -0.39583333 8.04166667 -3 7 C-2.38722388 4.03824877 -1.74627478 2.61941217 0 0 Z " fill="#039D96" transform="translate(13,1)"/>
<path d="M0 0 C0.99 0 1.98 0 3 0 C3 2.31 3 4.62 3 7 C1.35 7 -0.3 7 -2 7 C-2 6.34 -2 5.68 -2 5 C-2.66 5 -3.32 5 -4 5 C-4 5.66 -4 6.32 -4 7 C-4.66 7 -5.32 7 -6 7 C-5.34 5.35 -4.68 3.7 -4 2 C-3.01 2 -2.02 2 -1 2 C-0.67 1.34 -0.34 0.68 0 0 Z " fill="#E19889" transform="translate(24,13)"/>
</svg>
